<?xml version="1.0" encoding="utf-8"?>
<!-- Generator: Adobe Illustrator 27.5.0, SVG Export Plug-In . SVG Version: 6.00 Build 0)  -->
<svg version="1.1" id="Layer_1" xmlns="http://www.w3.org/2000/svg" xmlns:xlink="http://www.w3.org/1999/xlink" x="0px" y="0px"
	 viewBox="0 0 276.045 336.796" style="enable-background:new 0 0 276.045 336.796;" xml:space="preserve">
<g>
	<g>
		<path style="fill:#FFFFFF;" d="M261.203,277.4c0-1.656-2.424-3.113-6.1-3.971c3.137-1.087,4.709-2.673,3.789-4.302
			c-0.928-1.632-4.154-2.909-8.283-3.493c2.52-1.283,3.201-2.964,1.373-4.504c-1.9-1.61-6.049-2.664-10.678-2.902
			c2.004-1.467,1.813-3.258-0.979-4.697c-2.676-1.39-7.059-2.131-11.521-2.125c0.893-1.516-0.338-3.15-3.736-4.332
			c-3.363-1.173-8.041-1.602-12.385-1.298c0.016-1.544-2.113-3.056-6.074-3.98c-3.971-0.936-8.842-1.029-12.959-0.434
			c-0.82-1.521-3.752-2.882-8.18-3.519c-4.631-0.68-9.707-0.4-13.463,0.573c-1.572-1.531-5.336-2.753-10.258-3.087
			c-4.711-0.324-9.318,0.233-12.443,1.335c-2.449-1.289-6.664-2.146-11.461-2.146c-4.758,0-8.953,0.843-11.414,2.122
			c-3.117-1.093-7.701-1.635-12.371-1.322c-4.703,0.324-8.369,1.448-10.053,2.881c-3.682-0.876-8.518-1.108-12.955-0.478
			c-4.637,0.655-7.662,2.101-8.346,3.72c-4.236-0.704-9.365-0.64-13.533,0.334c-3.982,0.922-6.113,2.458-6.074,4.002
			c-4.375-0.318-9.092,0.122-12.482,1.298c-3.363,1.173-4.613,2.802-3.756,4.308c-4.426,0-8.775,0.731-11.432,2.106
			c-2.672,1.391-2.975,3.08-1.244,4.51c-4.393,0.285-8.285,1.308-10.143,2.842c-1.93,1.613-1.127,3.377,1.658,4.678
			c-4.414,0.555-7.902,1.862-8.879,3.567c-0.924,1.638,0.67,3.242,3.848,4.326c-3.723,0.857-6.182,2.321-6.182,3.989
			c0,1.653,2.432,3.111,6.107,3.968c-3.145,1.084-4.717,2.673-3.799,4.299c0.928,1.639,4.158,2.905,8.291,3.5
			c-2.525,1.276-3.207,2.948-1.385,4.494c1.904,1.61,6.063,2.664,10.684,2.909c-2.004,1.467-1.811,3.251,0.973,4.696
			c2.674,1.384,7.068,2.128,11.521,2.112c-0.896,1.528,0.344,3.163,3.736,4.342c3.369,1.16,8.043,1.604,12.387,1.305
			c-0.014,1.54,2.117,3.053,6.076,3.977c3.973,0.928,8.848,1.029,12.961,0.435c0.818,1.516,3.758,2.875,8.178,3.518
			c4.627,0.674,9.713,0.398,13.469-0.572c1.566,1.533,5.332,2.746,10.262,3.089c4.697,0.313,9.305-0.242,12.439-1.341
			c2.445,1.292,6.66,2.149,11.457,2.149c4.762,0,8.949-0.846,11.418-2.125c3.117,1.096,7.697,1.641,12.369,1.319
			c4.709-0.318,8.369-1.441,10.053-2.875c3.688,0.87,8.523,1.108,12.951,0.478c4.637-0.661,7.674-2.107,8.357-3.717
			c4.215,0.695,9.359,0.631,13.525-0.343c3.982-0.918,6.113-2.452,6.076-3.998c4.373,0.309,9.09-0.126,12.479-1.299
			c3.369-1.173,4.613-2.802,3.752-4.308c4.434,0.013,8.777-0.735,11.43-2.112c2.68-1.381,2.977-3.077,1.256-4.501
			c4.381-0.288,8.285-1.313,10.129-2.848c1.941-1.602,1.141-3.371-1.648-4.679c4.408-0.538,7.904-1.849,8.879-3.564
			c0.928-1.641-0.672-3.245-3.848-4.323C258.748,280.529,261.203,279.066,261.203,277.4z M23.041,270.126
			c0.283-0.554,1.816-0.928,3.42-0.814c1.592,0.092,2.648,0.631,2.354,1.188c-0.285,0.549-1.81,0.919-3.412,0.814
			C23.805,271.213,22.744,270.684,23.041,270.126z M21.15,277.4c0-0.563,1.309-1.025,2.939-1.025c1.623,0,2.938,0.462,2.938,1.025
			c0,0.555-1.314,1.023-2.938,1.023C22.459,278.423,21.15,277.955,21.15,277.4z M26.892,286.19c-1.59,0.102-3.141-0.257-3.467-0.805
			c-0.31-0.558,0.715-1.093,2.309-1.2c1.592-0.116,3.137,0.238,3.459,0.796C29.514,285.535,28.484,286.068,26.892,286.19z
			 M30.6,261.412c0.646-0.523,2.371-0.769,3.857-0.542c1.494,0.224,2.186,0.815,1.549,1.335c-0.646,0.526-2.369,0.763-3.859,0.542
			C30.654,262.521,29.965,261.921,30.6,261.412z M34.541,293.989c-1.482,0.23-3.223-0.01-3.856-0.533
			c-0.646-0.52,0.041-1.114,1.525-1.347c1.494-0.212,3.225,0.015,3.871,0.542C36.727,293.168,36.037,293.772,34.541,293.989z
			 M40.699,254.915c0.898-0.462,2.717-0.594,4.074-0.281c1.352,0.318,1.721,0.955,0.816,1.414c-0.9,0.481-2.719,0.601-4.07,0.291
			C40.16,256.026,39.799,255.396,40.699,254.915z M45.965,300.737c-1.34,0.324-3.168,0.205-4.094-0.261
			c-0.924-0.462-0.584-1.099,0.75-1.42c1.328-0.328,3.164-0.205,4.084,0.26C47.633,299.778,47.299,300.409,45.965,300.737z
			 M59.49,306.086c-1.152,0.395-3.016,0.395-4.164,0c-1.145-0.401-1.145-1.051,0-1.448c1.149-0.401,3.012-0.401,4.164,0
			C60.637,305.035,60.637,305.685,59.49,306.086z M59.49,250.151c-1.152,0.41-3.016,0.41-4.164,0c-1.145-0.389-1.145-1.038,0-1.436
			c1.149-0.4,3.012-0.4,4.164,0C60.637,249.113,60.637,249.763,59.49,250.151z M70.713,245.458c-0.928-0.463-0.588-1.1,0.742-1.424
			c1.338-0.315,3.166-0.199,4.086,0.263c0.926,0.466,0.594,1.105-0.742,1.421C73.465,246.039,71.633,245.923,70.713,245.458z
			 M77.262,310.887c-0.897,0.465-2.719,0.597-4.072,0.288c-1.355-0.318-1.715-0.956-0.816-1.424
			c0.893-0.469,2.717-0.598,4.068-0.285C77.801,309.778,78.162,310.415,77.262,310.887z M94.709,239.698
			c1.516-0.205,3.215,0.059,3.816,0.579c0.604,0.523-0.127,1.114-1.643,1.328c-1.508,0.199-3.223-0.045-3.822-0.572
			C92.469,240.51,93.201,239.91,94.709,239.698z M99.17,314.598c-0.588,0.529-2.287,0.787-3.803,0.594
			c-1.516-0.214-2.258-0.809-1.674-1.329c0.598-0.532,2.299-0.793,3.813-0.578C99.014,313.483,99.764,314.083,99.17,314.598z
			 M112.57,238.829c-0.32-0.548,0.711-1.084,2.301-1.206c1.596-0.107,3.146,0.248,3.459,0.805c0.324,0.555-0.707,1.093-2.299,1.2
			C114.434,239.738,112.885,239.383,112.57,238.829z M120.35,316.478c-0.295,0.563-1.822,0.931-3.424,0.833
			c-1.598-0.105-2.652-0.637-2.361-1.191c0.289-0.558,1.82-0.928,3.42-0.82C119.576,315.402,120.639,315.93,120.35,316.478z
			 M137.85,317.969c-1.625,0-2.945-0.466-2.945-1.026c0-0.564,1.32-1.028,2.945-1.028s2.936,0.465,2.936,1.028
			C140.785,317.503,139.475,317.969,137.85,317.969z M137.85,238.872c-1.625,0-2.945-0.456-2.945-1.02
			c0-0.564,1.32-1.017,2.945-1.017s2.936,0.453,2.936,1.017C140.785,238.416,139.475,238.872,137.85,238.872z M155.344,238.312
			c0.289-0.564,1.828-0.925,3.414-0.83c1.605,0.11,2.656,0.643,2.371,1.2c-0.291,0.549-1.822,0.922-3.424,0.814
			C156.117,239.395,155.049,238.869,155.344,238.312z M160.814,317.169c-1.586,0.113-3.137-0.248-3.455-0.799
			c-0.32-0.554,0.717-1.09,2.303-1.2c1.588-0.113,3.137,0.245,3.467,0.796C163.438,316.521,162.414,317.059,160.814,317.169z
			 M176.516,240.194c0.588-0.523,2.297-0.784,3.809-0.581c1.516,0.208,2.258,0.802,1.67,1.328c-0.594,0.526-2.301,0.781-3.809,0.579
			C176.672,241.316,175.92,240.725,176.516,240.194z M180.984,315.1c-1.512,0.199-3.227-0.052-3.822-0.582
			c-0.605-0.523,0.139-1.111,1.65-1.322c1.506-0.218,3.217,0.043,3.82,0.569C183.227,314.285,182.496,314.882,180.984,315.1z
			 M198.426,243.914c0.902-0.475,2.723-0.6,4.076-0.284c1.355,0.306,1.723,0.942,0.824,1.417c-0.902,0.463-2.725,0.601-4.076,0.282
			C197.896,245.014,197.529,244.386,198.426,243.914z M204.242,310.758c-1.34,0.322-3.174,0.205-4.09-0.26
			c-0.928-0.469-0.592-1.1,0.74-1.418c1.34-0.318,3.158-0.199,4.094,0.258C205.902,309.803,205.57,310.44,204.242,310.758z
			 M220.365,306.086c-1.152,0.395-3.016,0.395-4.156,0c-1.148-0.401-1.148-1.051,0-1.448c1.141-0.401,3.004-0.401,4.156,0
			C221.512,305.035,221.512,305.685,220.365,306.086z M220.365,250.151c-1.152,0.41-3.016,0.41-4.156,0
			c-1.148-0.389-1.148-1.038,0-1.436c1.141-0.4,3.004-0.4,4.156,0C221.512,249.113,221.512,249.763,220.365,250.151z
			 M228.986,255.484c-0.928-0.465-0.596-1.096,0.746-1.43c1.328-0.315,3.158-0.199,4.086,0.267c0.922,0.462,0.586,1.099-0.748,1.424
			C231.744,256.064,229.908,255.944,228.986,255.484z M234.992,299.877c-0.902,0.468-2.729,0.591-4.072,0.281
			c-1.354-0.309-1.721-0.946-0.818-1.411c0.9-0.483,2.727-0.604,4.072-0.291C235.527,298.772,235.887,299.408,234.992,299.877z
			 M241.145,260.809c1.49-0.227,3.225,0.007,3.861,0.527c0.645,0.526-0.041,1.12-1.533,1.341c-1.496,0.232-3.229-0.019-3.863-0.523
			C238.973,261.627,239.656,261.021,241.145,260.809z M245.09,293.392c-0.637,0.518-2.365,0.757-3.855,0.536
			c-1.494-0.227-2.189-0.823-1.551-1.341c0.648-0.521,2.377-0.757,3.865-0.542C245.043,292.272,245.732,292.875,245.09,293.392z
			 M248.799,268.608c1.592-0.108,3.146,0.254,3.461,0.811c0.32,0.551-0.717,1.08-2.299,1.203c-1.598,0.107-3.145-0.251-3.463-0.809
			C246.176,269.263,247.209,268.727,248.799,268.608z M252.658,284.669c-0.295,0.558-1.828,0.922-3.42,0.823
			c-1.6-0.103-2.664-0.627-2.369-1.19c0.295-0.558,1.82-0.925,3.426-0.82C251.887,283.585,252.943,284.115,252.658,284.669z
			 M251.604,278.423c-1.619,0-2.936-0.468-2.936-1.023c0-0.563,1.316-1.025,2.936-1.025c1.623,0,2.943,0.462,2.943,1.025
			C254.547,277.955,253.227,278.423,251.604,278.423z"/>
		<path style="fill:#B9E5FB;" d="M137.846,320.932c-4.596,0-8.871-0.786-11.49-2.121c-3.217,1.105-7.838,1.629-12.43,1.31
			c-4.725-0.328-8.558-1.461-10.336-3.05c-3.854,0.962-9.033,1.176-13.418,0.536c-4.213-0.612-7.209-1.88-8.322-3.494
			c-4.203,0.588-9.084,0.404-12.85-0.465c-2.197-0.521-5.771-1.688-6.357-3.946c-0.77,0.049-1.547,0.07-2.326,0.07
			c-3.695,0-7.18-0.503-9.809-1.412c-2.533-0.891-3.982-2.039-4.295-3.429c-0.053-0.251-0.086-0.555-0.041-0.9
			c-4.414-0.07-8.48-0.857-10.955-2.152c-1.684-0.869-2.564-1.923-2.615-3.145c-0.025-0.564,0.129-1.102,0.453-1.601
			c-4.318-0.377-7.844-1.434-9.578-2.915c-0.889-0.744-1.313-1.602-1.246-2.532c0.049-0.784,0.449-1.503,1.19-2.152
			c-2.43-0.483-5.863-1.497-6.969-3.45c-0.432-0.775-0.396-1.477-0.297-1.926c0.24-1.023,1.084-1.914,2.521-2.655
			c-2.408-0.79-4.639-2.063-4.639-4.103c0-2.058,2.258-3.337,4.686-4.124c-1.451-0.75-2.305-1.644-2.547-2.67
			c-0.103-0.456-0.139-1.16,0.297-1.932c1.174-2.055,4.826-3.061,7.424-3.536c-0.838-0.674-1.297-1.439-1.354-2.278
			c-0.07-0.952,0.361-1.815,1.281-2.581c1.684-1.411,5.061-2.44,9.17-2.841c-0.252-0.456-0.361-0.946-0.334-1.455
			c0.078-1.2,0.957-2.237,2.629-3.107c2.455-1.282,6.486-2.069,10.871-2.146c-0.033-0.333,0-0.63,0.053-0.869
			c0.318-1.39,1.764-2.538,4.295-3.417c2.629-0.912,6.101-1.418,9.789-1.418c0.815,0,1.623,0.028,2.428,0.08
			c0.574-2.284,4.158-3.466,6.373-3.98c2.293-0.529,4.936-0.805,7.668-0.805c1.965,0,3.941,0.144,5.729,0.429
			c1.029-1.721,4.094-3.056,8.52-3.681c4.236-0.604,9.115-0.429,12.91,0.453c1.863-1.488,5.619-2.544,10.117-2.854
			c4.549-0.306,9.148,0.199,12.365,1.292c2.623-1.314,6.875-2.101,11.44-2.101c4.594,0,8.871,0.793,11.484,2.122
			c3.236-1.108,7.869-1.619,12.439-1.308c4.713,0.331,8.549,1.464,10.334,3.047c3.852-0.955,9.033-1.16,13.414-0.529
			c4.217,0.608,7.211,1.873,8.318,3.49c4.211-0.585,9.094-0.414,12.85,0.468c2.201,0.515,5.773,1.693,6.365,3.944
			c0.768-0.047,1.537-0.068,2.309-0.068c3.717,0,7.195,0.506,9.818,1.418c2.539,0.879,3.984,2.03,4.301,3.43
			c0.051,0.238,0.084,0.535,0.035,0.891c4.414,0.064,8.475,0.86,10.955,2.152c1.688,0.866,2.57,1.926,2.625,3.135
			c0.018,0.573-0.133,1.118-0.459,1.614c4.322,0.373,7.84,1.435,9.58,2.899c0.889,0.753,1.303,1.61,1.244,2.544
			c-0.053,0.787-0.449,1.51-1.186,2.149c2.422,0.483,5.857,1.497,6.967,3.45c0.435,0.775,0.402,1.482,0.295,1.939
			c-0.238,1.014-1.082,1.904-2.52,2.654c2.225,0.728,4.645,2.012,4.645,4.1c0,2.098-2.453,3.384-4.697,4.115
			c1.457,0.75,2.309,1.65,2.547,2.67c0.113,0.459,0.146,1.16-0.291,1.934c-1.166,2.052-4.828,3.068-7.432,3.536
			c0.846,0.68,1.307,1.442,1.367,2.281c0.066,0.952-0.365,1.815-1.293,2.578c-1.676,1.402-5.049,2.443-9.162,2.838
			c0.25,0.46,0.361,0.949,0.332,1.458c-0.074,1.203-0.959,2.25-2.621,3.107c-2.471,1.279-6.502,2.073-10.885,2.146
			c0.037,0.337,0,0.637-0.047,0.869c-0.318,1.396-1.762,2.544-4.301,3.426c-2.629,0.909-6.123,1.412-9.813,1.412
			c-0.801,0-1.604-0.021-2.398-0.07c-0.566,2.271-4.156,3.45-6.377,3.962c-2.289,0.532-4.941,0.817-7.686,0.817
			c-1.953,0-3.92-0.147-5.709-0.426c-1.02,1.715-4.084,3.043-8.51,3.671c-4.236,0.6-9.117,0.429-12.916-0.447
			c-1.869,1.479-5.627,2.545-10.111,2.851c-4.613,0.31-9.119-0.178-12.377-1.292C146.66,320.151,142.406,320.932,137.846,320.932z
			 M126.389,317.476c0.047,0,0.096,0.016,0.15,0.04c2.51,1.322,6.73,2.109,11.307,2.109c4.533,0,8.74-0.774,11.266-2.082
			c0.078-0.046,0.168-0.052,0.254-0.021c3.145,1.103,7.717,1.607,12.25,1.301c4.463-0.303,8.148-1.347,9.842-2.789
			c0.094-0.076,0.207-0.104,0.305-0.082c3.738,0.896,8.623,1.08,12.834,0.471c5.156-0.723,7.535-2.287,8.016-3.404
			c0.092-0.211,0.26-0.321,0.434-0.307c1.818,0.307,3.848,0.46,5.859,0.46c2.697,0,5.303-0.272,7.541-0.796
			c4.555-1.057,5.721-2.642,5.707-3.332c-0.006-0.18,0.035-0.36,0.127-0.489c0.088-0.129,0.172-0.193,0.346-0.187
			c0.898,0.067,1.818,0.095,2.74,0.095c3.627,0,7.039-0.487,9.611-1.378c3.082-1.071,3.566-2.229,3.643-2.563
			c0.037-0.145,0.053-0.358-0.141-0.686c-0.111-0.193-0.137-0.463-0.061-0.698c0.07-0.229,0.229-0.377,0.408-0.377l0,0l0,0
			c4.561,0,8.768-0.777,11.281-2.069c1.824-0.946,2.018-1.764,2.025-1.996c0.023-0.38-0.285-0.864-0.842-1.329
			c-0.178-0.147-0.264-0.435-0.217-0.72c0.045-0.285,0.217-0.49,0.418-0.502c4.498-0.291,8.205-1.326,9.93-2.765
			c0.557-0.453,0.863-0.937,0.832-1.308c-0.031-0.523-0.688-1.375-2.396-2.177c-0.207-0.098-0.336-0.389-0.311-0.704
			c0.027-0.303,0.199-0.545,0.408-0.566c4.367-0.542,7.725-1.85,8.568-3.341c0.182-0.327,0.168-0.535,0.135-0.677
			c-0.16-0.689-1.223-1.73-3.744-2.59c-0.205-0.07-0.348-0.34-0.34-0.661c0.006-0.313,0.164-0.572,0.381-0.618
			c3.986-0.913,5.801-2.37,5.801-3.338c0-0.961-1.787-2.416-5.727-3.322c-0.217-0.052-0.371-0.314-0.379-0.627
			c-0.006-0.304,0.135-0.588,0.344-0.658c2.479-0.852,3.529-1.89,3.684-2.572c0.031-0.138,0.051-0.355-0.137-0.683
			c-0.805-1.424-3.865-2.667-7.982-3.255c-0.199-0.027-0.369-0.263-0.396-0.572c-0.029-0.303,0.1-0.588,0.293-0.689
			c1.51-0.765,2.076-1.552,2.104-2.035c0.035-0.371-0.26-0.833-0.801-1.289c-1.754-1.494-5.766-2.572-10.467-2.814
			c-0.207-0.015-0.391-0.22-0.426-0.517c-0.049-0.291,0.055-0.588,0.236-0.723c0.699-0.512,1.107-1.075,1.094-1.501
			c-0.029-0.478-0.563-1.252-2.023-1.996c-2.512-1.304-6.701-2.078-11.232-2.078h-0.133c-0.002,0-0.002,0-0.002,0
			c-0.18,0-0.338-0.153-0.41-0.377c-0.072-0.232-0.045-0.515,0.068-0.704c0.232-0.392,0.176-0.625,0.156-0.714
			c-0.076-0.33-0.557-1.494-3.652-2.56c-2.559-0.894-5.963-1.381-9.607-1.381c-0.885,0-1.775,0.028-2.65,0.095
			c-0.131,0.007-0.244-0.066-0.334-0.189c-0.092-0.122-0.141-0.297-0.141-0.475c0.006-0.689-1.18-2.269-5.697-3.325
			c-3.744-0.878-8.641-1.038-12.846-0.425c-0.152,0.023-0.299-0.077-0.396-0.252c-0.6-1.117-2.98-2.56-7.867-3.27
			c-4.361-0.64-9.557-0.41-13.338,0.563c-0.121,0.03-0.234-0.003-0.334-0.104c-1.559-1.509-5.4-2.651-10.033-2.973
			c-4.551-0.315-9.15,0.208-12.307,1.322c-0.092,0.031-0.18,0.021-0.264-0.021c-2.506-1.325-6.734-2.112-11.307-2.112
			c-4.533,0-8.74,0.781-11.262,2.088c-0.084,0.046-0.174,0.05-0.256,0.021c-3.145-1.102-7.727-1.619-12.248-1.301
			c-4.473,0.303-8.152,1.347-9.84,2.783c-0.098,0.082-0.205,0.104-0.303,0.085c-3.738-0.891-8.623-1.08-12.838-0.471
			c-5.152,0.726-7.541,2.293-8.012,3.414c-0.092,0.217-0.271,0.327-0.434,0.297c-1.828-0.297-3.871-0.466-5.889-0.466
			c-2.68,0-5.277,0.282-7.52,0.799c-4.547,1.057-5.715,2.648-5.699,3.347c0.006,0.178-0.047,0.358-0.139,0.48
			c-0.09,0.132-0.186,0.175-0.334,0.19c-0.918-0.067-1.85-0.102-2.777-0.102c-3.615,0-7.017,0.487-9.574,1.381
			c-2.457,0.849-3.494,1.877-3.654,2.56c-0.033,0.147-0.045,0.361,0.141,0.689c0.115,0.192,0.137,0.462,0.064,0.697
			c-0.076,0.224-0.238,0.374-0.412,0.374c-4.555,0-8.775,0.774-11.277,2.073c-1.822,0.945-2.014,1.76-2.023,1.996
			c-0.023,0.376,0.285,0.863,0.848,1.332c0.17,0.138,0.26,0.432,0.211,0.716c-0.041,0.285-0.213,0.49-0.416,0.496
			c-4.494,0.297-8.211,1.329-9.932,2.765c-0.555,0.459-0.865,0.949-0.832,1.311c0.037,0.529,0.684,1.378,2.396,2.174
			c0.209,0.102,0.336,0.394,0.309,0.698c-0.02,0.315-0.191,0.561-0.404,0.581c-4.363,0.533-7.725,1.847-8.568,3.325
			c-0.193,0.334-0.172,0.545-0.139,0.689c0.156,0.683,1.225,1.727,3.744,2.59c0.201,0.07,0.355,0.346,0.342,0.665
			c-0.008,0.309-0.168,0.566-0.379,0.615c-3.984,0.915-5.803,2.373-5.803,3.34c0,0.959,1.789,2.41,5.73,3.319
			c0.209,0.049,0.373,0.309,0.379,0.628c0.008,0.309-0.135,0.584-0.348,0.658c-2.479,0.851-3.527,1.883-3.686,2.571
			c-0.035,0.138-0.053,0.349,0.139,0.677c0.791,1.418,3.855,2.67,7.977,3.255c0.207,0.036,0.377,0.273,0.404,0.578
			c0.022,0.304-0.103,0.588-0.305,0.692c-1.504,0.762-2.072,1.543-2.106,2.036c-0.027,0.361,0.27,0.829,0.807,1.279
			c1.762,1.501,5.771,2.581,10.476,2.817c0.205,0.018,0.379,0.227,0.424,0.518c0.041,0.293-0.057,0.591-0.238,0.725
			c-0.701,0.509-1.111,1.069-1.086,1.504c0.018,0.469,0.553,1.236,2.014,1.99c2.508,1.307,6.715,2.082,11.256,2.082l0,0
			c0.174,0,0.393,0.149,0.465,0.379c0.072,0.233,0.1,0.506-0.012,0.695c-0.23,0.393-0.174,0.631-0.154,0.717
			c0.074,0.334,0.555,1.491,3.648,2.563c2.557,0.891,5.963,1.378,9.594,1.378c0.895,0,1.783-0.027,2.668-0.089
			c0.127-0.006,0.244,0.059,0.334,0.181c0.09,0.122,0.141,0.303,0.141,0.48c-0.012,0.692,1.174,2.266,5.689,3.322
			c3.752,0.876,8.658,1.034,12.844,0.429c0.152-0.027,0.307,0.073,0.398,0.245c0.605,1.123,2.99,2.565,7.873,3.278
			c4.361,0.634,9.557,0.401,13.346-0.569c0.117-0.033,0.234,0.013,0.328,0.105c1.551,1.513,5.393,2.651,10.027,2.976
			c4.563,0.31,9.162-0.211,12.311-1.328C126.314,317.484,126.348,317.476,126.389,317.476z M137.85,318.624
			c-0.797,0-3.389-0.129-3.389-1.682c0-1.558,2.592-1.675,3.389-1.675c0.795,0,3.387,0.117,3.387,1.675
			C141.236,318.495,138.645,318.624,137.85,318.624z M135.646,316.942c0.41,0.181,1.158,0.368,2.203,0.368
			c1.039,0,1.789-0.188,2.197-0.368c-0.408-0.184-1.158-0.373-2.197-0.373C136.805,316.569,136.057,316.759,135.646,316.942z
			 M117.449,317.98c-0.176,0-0.356-0.009-0.535-0.012c-0.91-0.067-2.471-0.31-2.783-1.272c-0.109-0.318-0.076-0.68,0.078-0.97
			c0.535-1.044,2.777-1.1,3.229-1.1c0.186,0,0.369,0.003,0.566,0.016c0.902,0.064,2.473,0.297,2.783,1.261
			c0.104,0.319,0.072,0.687-0.082,0.971C120.162,317.923,117.893,317.98,117.449,317.98z M115.258,316.303
			c0.328,0.145,0.883,0.3,1.691,0.353c0.17,0.009,0.334,0.019,0.5,0.019c1.045,0,1.797-0.188,2.205-0.371
			c-0.33-0.15-0.885-0.3-1.691-0.352C116.73,315.865,115.736,316.089,115.258,316.303z M160.242,317.843
			c-0.439,0-2.645-0.049-3.225-1.047c-0.172-0.297-0.217-0.671-0.113-0.998c0.301-0.974,1.842-1.225,2.736-1.28
			c0.201-0.015,0.406-0.022,0.609-0.022c0.428,0,2.633,0.049,3.217,1.051c0.168,0.287,0.207,0.661,0.111,0.992
			c-0.281,0.921-1.645,1.212-2.744,1.289C160.639,317.834,160.439,317.843,160.242,317.843z M158.041,316.168
			c0.414,0.184,1.168,0.374,2.201,0.374c0.184,0,0.367-0.013,0.553-0.021c0.779-0.053,1.322-0.208,1.643-0.353
			c-0.488-0.211-1.523-0.44-2.756-0.346C158.9,315.871,158.359,316.022,158.041,316.168z M96.416,315.904
			c-0.359,0-0.73-0.017-1.096-0.07c-2.086-0.284-2.215-1.123-2.264-1.398c-0.027-0.205-0.053-0.726,0.404-1.133
			c0.617-0.549,1.945-0.754,2.977-0.754c0.373,0,0.74,0.024,1.107,0.077c2.094,0.288,2.219,1.13,2.27,1.405
			c0.023,0.199,0.051,0.728-0.412,1.127C98.785,315.706,97.461,315.904,96.416,315.904z M94.242,314.23
			c0.238,0.104,0.617,0.232,1.164,0.309c1.281,0.169,2.604-0.036,3.219-0.309c-0.242-0.104-0.615-0.227-1.162-0.301
			C96.174,313.752,94.846,313.957,94.242,314.23z M179.9,315.822c-1.029,0-2.354-0.199-2.971-0.747
			c-0.471-0.401-0.445-0.922-0.408-1.136c0.035-0.27,0.17-1.105,2.246-1.397c0.371-0.046,0.754-0.076,1.133-0.076
			c1.017,0,2.338,0.192,2.969,0.74c0.461,0.407,0.439,0.928,0.412,1.127c-0.055,0.285-0.184,1.121-2.256,1.418
			C180.654,315.795,180.273,315.822,179.9,315.822z M177.703,314.139c0.465,0.214,1.23,0.376,2.197,0.376
			c0.348,0,0.699-0.024,1.041-0.07c0.535-0.076,0.904-0.192,1.145-0.291c-0.658-0.303-1.979-0.489-3.232-0.31
			C178.313,313.915,177.949,314.031,177.703,314.139z M74.807,311.989c-0.598,0-1.184-0.059-1.689-0.175
			c-1.108-0.261-1.641-0.704-1.692-1.411c-0.017-0.374,0.094-0.907,0.787-1.265c0.604-0.31,1.557-0.493,2.605-0.493
			c0.6,0,1.188,0.055,1.695,0.171c1.109,0.264,1.648,0.711,1.697,1.418c0.012,0.383-0.1,0.903-0.801,1.259
			C76.811,311.809,75.861,311.989,74.807,311.989z M72.617,310.315c0.152,0.076,0.361,0.146,0.641,0.211
			c1.18,0.278,2.92,0.172,3.752-0.211c-0.154-0.067-0.355-0.142-0.637-0.202C75.197,309.836,73.449,309.938,72.617,310.315z
			 M202.563,311.594c-1.025,0-1.961-0.174-2.561-0.472c-0.578-0.294-0.854-0.731-0.824-1.279c0.039-0.695,0.561-1.146,1.639-1.408
			c1.381-0.325,3.348-0.196,4.314,0.29c0.58,0.291,0.852,0.717,0.824,1.275c-0.049,0.701-0.566,1.147-1.646,1.405
			C203.789,311.526,203.188,311.594,202.563,311.594z M200.371,309.919c0.842,0.389,2.604,0.49,3.793,0.193
			c0.258-0.059,0.453-0.135,0.596-0.193c-0.844-0.386-2.6-0.48-3.795-0.192C200.705,309.791,200.506,309.858,200.371,309.919z
			 M218.289,307.041c-0.822,0-1.605-0.119-2.186-0.321c-0.299-0.104-1.203-0.423-1.209-1.356c0-0.939,0.906-1.255,1.209-1.365
			c1.174-0.407,3.186-0.407,4.365,0c0.301,0.11,1.205,0.426,1.205,1.365c0,0.934-0.904,1.252-1.205,1.356
			C219.881,306.922,219.107,307.041,218.289,307.041z M216.092,305.358c0.053,0.027,0.131,0.064,0.219,0.092
			c1.031,0.358,2.928,0.358,3.943,0c0.094-0.027,0.162-0.065,0.226-0.092c-0.064-0.027-0.133-0.053-0.226-0.089
			c-1.016-0.361-2.912-0.361-3.943,0C216.223,305.305,216.145,305.33,216.092,305.358z M57.406,307.041
			c-0.816,0-1.596-0.119-2.18-0.321c-0.305-0.104-1.205-0.423-1.211-1.356c0-0.939,0.906-1.255,1.211-1.365
			c1.172-0.407,3.193-0.407,4.361,0c0.303,0.11,1.211,0.426,1.211,1.365c0,0.934-0.908,1.252-1.211,1.356
			C59.006,306.922,58.227,307.041,57.406,307.041z M55.205,305.358c0.061,0.027,0.137,0.064,0.23,0.092
			c1.039,0.364,2.902,0.364,3.943,0c0.094-0.027,0.16-0.065,0.227-0.092c-0.066-0.027-0.133-0.053-0.227-0.089
			c-1.041-0.361-2.904-0.361-3.955,0C55.342,305.305,55.266,305.33,55.205,305.358z M44.293,301.566
			c-1.025,0-1.969-0.171-2.572-0.475c-0.576-0.287-0.854-0.719-0.82-1.267c0.043-0.704,0.563-1.15,1.645-1.414
			c0.516-0.123,1.125-0.189,1.74-0.189c1.027,0,1.963,0.177,2.57,0.475c0.574,0.29,0.861,0.716,0.824,1.276
			c-0.039,0.701-0.563,1.145-1.643,1.405C45.516,301.502,44.916,301.566,44.293,301.566z M42.094,299.892
			c0.854,0.39,2.605,0.493,3.795,0.199c0.264-0.065,0.459-0.132,0.6-0.199c-0.846-0.379-2.613-0.483-3.795-0.192
			C42.428,299.761,42.234,299.831,42.094,299.892z M232.551,300.988c-0.607,0-1.195-0.067-1.701-0.184
			c-1.109-0.261-1.645-0.714-1.689-1.408c-0.025-0.38,0.092-0.906,0.791-1.268c0.596-0.315,1.539-0.496,2.594-0.496
			c0.605,0,1.195,0.064,1.699,0.181c1.111,0.251,1.643,0.701,1.691,1.408c0.023,0.38-0.092,0.909-0.791,1.27
			C234.549,300.805,233.6,300.988,232.551,300.988z M230.354,299.308c0.148,0.07,0.361,0.144,0.637,0.205
			c1.18,0.275,2.924,0.174,3.756-0.205c-0.154-0.067-0.361-0.135-0.643-0.206C232.916,298.83,231.178,298.931,230.354,299.308z
			 M33.377,294.73c-0.992,0-2.279-0.19-2.916-0.698c-0.506-0.414-0.488-0.949-0.461-1.157c0.039-0.273,0.16-1.105,2.17-1.406
			c0.398-0.066,0.811-0.095,1.225-0.095c0.98,0,2.268,0.186,2.906,0.708c0.502,0.403,0.488,0.936,0.459,1.154
			c-0.041,0.271-0.156,1.105-2.168,1.404C34.197,294.699,33.785,294.73,33.377,294.73z M31.201,293.043
			c0.473,0.221,1.225,0.38,2.176,0.38c0.377,0,0.756-0.024,1.125-0.08c0.488-0.07,0.832-0.178,1.059-0.281
			c-0.473-0.215-1.223-0.374-2.166-0.374c-0.381,0-0.766,0.022-1.129,0.08C31.77,292.838,31.424,292.945,31.201,293.043z
			 M242.387,294.662c-0.404,0-0.807-0.027-1.203-0.082c-2.012-0.307-2.139-1.133-2.172-1.412c-0.031-0.214-0.051-0.743,0.457-1.16
			c0.639-0.511,1.934-0.691,2.926-0.691c0.404,0,0.807,0.027,1.199,0.086c2.016,0.297,2.139,1.133,2.172,1.401
			c0.031,0.215,0.043,0.751-0.457,1.154C244.676,294.476,243.385,294.662,242.387,294.662z M240.197,292.982
			c0.219,0.102,0.568,0.221,1.078,0.291c0.361,0.056,0.74,0.08,1.111,0.08c0.982,0,1.762-0.169,2.197-0.371
			c-0.227-0.098-0.572-0.208-1.078-0.284c-0.365-0.053-0.738-0.08-1.111-0.08C241.41,292.617,240.637,292.792,240.197,292.982z
			 M26.32,286.861c-0.436,0-2.643-0.049-3.234-1.047c-0.17-0.31-0.205-0.677-0.111-1.002c0.281-0.924,1.645-1.209,2.74-1.282
			c0.203-0.009,0.41-0.022,0.605-0.022c0.439,0,2.637,0.052,3.217,1.05c0.172,0.291,0.217,0.658,0.119,0.995
			c-0.281,0.919-1.643,1.206-2.738,1.286C26.713,286.853,26.521,286.861,26.32,286.861z M24.117,285.19
			c0.41,0.172,1.172,0.364,2.203,0.364c0.186,0,0.369-0.003,0.553-0.024c0.781-0.055,1.32-0.205,1.639-0.34
			c-0.486-0.217-1.527-0.456-2.76-0.358C24.976,284.893,24.432,285.036,24.117,285.19z M249.781,286.163
			c-0.191,0-0.377-0.009-0.563-0.021c-0.912-0.055-2.477-0.294-2.789-1.261c-0.1-0.322-0.072-0.689,0.084-0.975
			c0.547-1.041,2.795-1.093,3.236-1.093c0.184,0,0.373,0.003,0.563,0.013c0.896,0.058,2.463,0.297,2.781,1.268
			c0.1,0.315,0.074,0.68-0.074,0.961C252.459,286.111,250.219,286.163,249.781,286.163z M247.557,284.488
			c0.328,0.141,0.881,0.297,1.697,0.343c1.217,0.095,2.225-0.138,2.707-0.349c-0.326-0.141-0.881-0.297-1.686-0.343
			C249.033,284.041,248.035,284.268,247.557,284.488z M251.604,279.075c-0.801,0-3.389-0.122-3.389-1.675
			c0-1.559,2.588-1.675,3.389-1.675c0.797,0,3.391,0.116,3.391,1.675C254.994,278.953,252.4,279.075,251.604,279.075z
			 M249.406,277.4c0.408,0.181,1.158,0.364,2.197,0.364c1.037,0,1.785-0.184,2.197-0.364c-0.412-0.189-1.16-0.367-2.197-0.367
			C250.559,277.033,249.814,277.211,249.406,277.4z M24.09,279.075c-0.799,0-3.385-0.122-3.385-1.675
			c0-1.559,2.586-1.675,3.385-1.675c0.797,0,3.387,0.116,3.387,1.675C27.476,278.953,24.887,279.075,24.09,279.075z M21.889,277.4
			c0.412,0.181,1.162,0.364,2.201,0.364c1.029,0,1.785-0.184,2.197-0.364c-0.412-0.189-1.168-0.367-2.197-0.367
			C23.051,277.033,22.301,277.211,21.889,277.4z M25.926,271.984c-0.182,0-0.361-0.006-0.541-0.016
			c-0.91-0.065-2.475-0.309-2.789-1.271c-0.103-0.315-0.07-0.677,0.084-0.968c0.549-1.044,2.789-1.096,3.221-1.096
			c0.199,0,0.387,0.01,0.578,0.019c0.898,0.055,2.463,0.294,2.779,1.265c0.104,0.318,0.072,0.677-0.076,0.974
			C28.629,271.939,26.377,271.984,25.926,271.984z M23.736,270.313c0.32,0.147,0.875,0.294,1.684,0.346
			c1.209,0.074,2.227-0.135,2.713-0.346c-0.328-0.15-0.881-0.306-1.691-0.346C25.229,269.875,24.217,270.102,23.736,270.313z
			 M249.385,271.299c-0.441,0-2.65-0.053-3.227-1.063c-0.182-0.294-0.217-0.664-0.115-0.992c0.277-0.922,1.643-1.209,2.738-1.289
			c0.199-0.009,0.396-0.012,0.598-0.012c0.436,0,2.656,0.049,3.232,1.053c0.164,0.291,0.203,0.658,0.107,0.986
			c-0.279,0.921-1.639,1.212-2.734,1.289C249.781,271.286,249.574,271.299,249.385,271.299z M247.178,269.608
			c0.484,0.221,1.512,0.44,2.764,0.361c0.777-0.055,1.316-0.211,1.641-0.361c-0.488-0.205-1.525-0.432-2.76-0.343
			C248.035,269.315,247.498,269.468,247.178,269.608z M33.297,263.483c-0.396,0-0.805-0.028-1.197-0.086
			c-2.018-0.297-2.135-1.133-2.18-1.408c-0.025-0.209-0.043-0.744,0.459-1.151c0.65-0.521,1.932-0.708,2.926-0.708
			c0.396,0,0.811,0.028,1.203,0.092c2.012,0.298,2.131,1.13,2.174,1.406c0.025,0.205,0.045,0.747-0.461,1.154
			C35.578,263.301,34.291,263.483,33.297,263.483z M31.105,261.814c0.233,0.101,0.576,0.208,1.084,0.281
			c0.365,0.059,0.74,0.08,1.107,0.08c0.981,0,1.758-0.172,2.205-0.37c-0.227-0.102-0.578-0.212-1.084-0.282
			c-0.369-0.064-0.746-0.083-1.113-0.083C32.318,261.44,31.551,261.614,31.105,261.814z M242.305,263.418
			c-0.992,0-2.275-0.188-2.912-0.698c-0.504-0.407-0.488-0.946-0.457-1.157c0.037-0.27,0.152-1.108,2.166-1.405
			c0.395-0.059,0.809-0.086,1.211-0.086c0.986,0,2.271,0.184,2.912,0.698c0.51,0.41,0.492,0.945,0.463,1.151
			c-0.039,0.284-0.154,1.108-2.168,1.411C243.123,263.391,242.713,263.418,242.305,263.418z M240.133,261.736
			c0.471,0.212,1.229,0.374,2.172,0.374c0.375,0,0.752-0.027,1.121-0.086c0.496-0.064,0.838-0.171,1.064-0.275
			c-0.473-0.214-1.225-0.374-2.178-0.374c-0.375,0-0.75,0.025-1.115,0.083C240.705,261.528,240.359,261.639,240.133,261.736z
			 M43.148,257.159c-0.604,0-1.195-0.055-1.701-0.171c-1.107-0.261-1.637-0.711-1.688-1.418c-0.025-0.37,0.088-0.893,0.781-1.27
			c0.604-0.313,1.553-0.49,2.607-0.49c0.607,0,1.191,0.059,1.697,0.178c1.105,0.264,1.643,0.711,1.686,1.424
			c0.021,0.37-0.094,0.897-0.791,1.256C45.148,256.983,44.203,257.159,43.148,257.159z M40.943,255.484
			c0.15,0.07,0.356,0.139,0.647,0.209c1.18,0.272,2.924,0.171,3.746-0.209c-0.15-0.073-0.355-0.141-0.637-0.205
			C43.523,255.007,41.775,255.108,40.943,255.484z M231.406,256.574c-1.029,0-1.969-0.174-2.568-0.471
			c-0.578-0.294-0.859-0.72-0.824-1.277c0.041-0.701,0.561-1.15,1.643-1.414c0.516-0.123,1.119-0.186,1.734-0.186
			c1.029,0,1.969,0.174,2.576,0.478c0.58,0.287,0.852,0.719,0.82,1.268c-0.041,0.701-0.561,1.147-1.645,1.417
			C232.629,256.508,232.027,256.574,231.406,256.574z M229.199,254.903c0.844,0.376,2.615,0.48,3.795,0.195
			c0.273-0.061,0.459-0.132,0.605-0.195c-0.852-0.386-2.609-0.484-3.795-0.202C229.539,254.771,229.342,254.836,229.199,254.903z
			 M218.289,251.112c-0.822,0-1.605-0.116-2.186-0.318c-0.299-0.104-1.209-0.419-1.209-1.359c0-0.939,0.91-1.255,1.209-1.352
			c1.174-0.411,3.186-0.411,4.365,0c0.301,0.098,1.205,0.413,1.205,1.352c0,0.94-0.904,1.256-1.209,1.359
			C219.881,250.996,219.107,251.112,218.289,251.112z M216.092,249.435c0.061,0.024,0.135,0.052,0.215,0.083
			c1.035,0.361,2.926,0.361,3.947,0c0.086-0.031,0.162-0.059,0.219-0.083c-0.057-0.027-0.125-0.055-0.219-0.083
			c-1.021-0.36-2.912-0.36-3.943,0C216.227,249.38,216.16,249.407,216.092,249.435z M57.406,251.112
			c-0.816,0-1.596-0.116-2.18-0.318c-0.305-0.104-1.211-0.419-1.211-1.359c0-0.939,0.906-1.255,1.211-1.352
			c1.172-0.411,3.193-0.411,4.361,0c0.303,0.098,1.211,0.413,1.211,1.352c0,0.94-0.908,1.256-1.211,1.359
			C59.006,250.996,58.227,251.112,57.406,251.112z M55.211,249.435c0.064,0.024,0.141,0.052,0.213,0.083
			c1.063,0.367,2.914,0.373,3.955,0c0.09-0.031,0.16-0.059,0.221-0.083c-0.061-0.027-0.127-0.055-0.221-0.083
			c-1.041-0.367-2.904-0.367-3.955,0C55.352,249.38,55.275,249.407,55.211,249.435z M73.133,246.554
			c-1.033,0-1.965-0.178-2.568-0.472c-0.582-0.3-0.852-0.72-0.822-1.279c0.043-0.701,0.558-1.158,1.637-1.412
			c1.379-0.324,3.344-0.199,4.314,0.288c0.582,0.294,0.857,0.717,0.82,1.276c-0.031,0.698-0.563,1.143-1.641,1.406
			C74.354,246.486,73.754,246.554,73.133,246.554z M70.93,244.879c0.844,0.38,2.621,0.483,3.799,0.196
			c0.262-0.064,0.459-0.138,0.594-0.196c-0.836-0.386-2.604-0.49-3.793-0.199C71.262,244.75,71.07,244.817,70.93,244.879z
			 M200.881,246.152c-0.607,0-1.193-0.061-1.703-0.171c-1.105-0.264-1.641-0.708-1.686-1.418c-0.027-0.373,0.088-0.894,0.785-1.265
			c0.598-0.313,1.551-0.496,2.602-0.496c0.598,0,1.193,0.067,1.693,0.178c1.104,0.254,1.645,0.707,1.691,1.415
			c0.027,0.379-0.09,0.903-0.785,1.274C202.873,245.982,201.926,246.152,200.881,246.152z M198.684,244.484
			c0.146,0.058,0.348,0.131,0.639,0.201c1.176,0.273,2.918,0.169,3.752-0.201c-0.152-0.07-0.361-0.148-0.643-0.212
			C201.248,244.003,199.508,244.102,198.684,244.484z M95.793,242.328c-1.023,0-2.348-0.195-2.963-0.737
			c-0.465-0.404-0.443-0.925-0.412-1.133c0.043-0.272,0.18-1.121,2.246-1.405c0.369-0.049,0.742-0.077,1.109-0.077
			c1.031,0,2.352,0.196,2.984,0.744c0.469,0.413,0.443,0.934,0.412,1.133c-0.041,0.285-0.176,1.121-2.248,1.402
			C96.561,242.307,96.174,242.328,95.793,242.328z M93.609,240.645c0.463,0.215,1.217,0.373,2.184,0.373
			c0.35,0,0.707-0.012,1.045-0.063c0.533-0.077,0.9-0.188,1.139-0.288c-0.656-0.303-1.965-0.49-3.227-0.313
			C94.221,240.427,93.848,240.544,93.609,240.645z M179.24,242.246c-0.363,0-0.732-0.027-1.096-0.074
			c-2.088-0.287-2.225-1.12-2.266-1.396c-0.031-0.202-0.063-0.723,0.404-1.136c0.627-0.552,1.953-0.747,2.992-0.747
			c0.361,0,0.729,0.018,1.086,0.07c2.084,0.284,2.225,1.12,2.271,1.399c0.029,0.201,0.053,0.726-0.412,1.133
			C181.613,242.044,180.281,242.246,179.24,242.246z M177.053,240.564c0.244,0.113,0.619,0.236,1.172,0.307
			c1.285,0.162,2.615-0.03,3.229-0.307c-0.244-0.107-0.619-0.229-1.178-0.3C178.998,240.097,177.672,240.299,177.053,240.564z
			 M115.445,240.299c-0.434,0-2.645-0.046-3.217-1.051c-0.168-0.291-0.205-0.664-0.107-0.985c0.271-0.925,1.635-1.213,2.732-1.289
			c0.199-0.016,0.404-0.021,0.596-0.021c0.441,0,2.652,0.052,3.228,1.054c0.17,0.293,0.209,0.661,0.113,0.991
			c-0.285,0.928-1.645,1.216-2.734,1.286C115.85,240.299,115.645,240.299,115.445,240.299z M113.26,238.63
			c0.483,0.211,1.502,0.45,2.748,0.346c0.791-0.052,1.332-0.205,1.65-0.346c-0.492-0.214-1.518-0.435-2.766-0.349
			C114.105,238.333,113.578,238.489,113.26,238.63z M158.262,240.164c-0.186,0-0.389-0.003-0.574-0.016
			c-0.9-0.059-2.465-0.297-2.777-1.255c-0.109-0.321-0.078-0.683,0.066-0.974c0.549-1.044,2.814-1.103,3.268-1.103
			c0.172,0,0.361,0.006,0.539,0.019c0.902,0.055,2.467,0.3,2.783,1.271c0.104,0.313,0.066,0.677-0.082,0.961
			C160.936,240.115,158.701,240.164,158.262,240.164z M156.037,238.492c0.326,0.146,0.879,0.3,1.691,0.352
			c1.217,0.086,2.223-0.134,2.705-0.352c-0.328-0.144-0.877-0.297-1.693-0.355c-0.168-0.003-0.332-0.012-0.496-0.012
			C157.209,238.125,156.453,238.312,156.037,238.492z M137.85,239.533c-0.797,0-3.389-0.123-3.389-1.681
			c0-1.553,2.592-1.669,3.389-1.669c1.02,0,3.387,0.159,3.387,1.669C141.236,239.41,138.645,239.533,137.85,239.533z
			 M135.646,237.853c0.41,0.184,1.158,0.37,2.203,0.37c1.039,0,1.785-0.187,2.197-0.37c-0.412-0.184-1.158-0.371-2.197-0.371
			C136.805,237.482,136.057,237.669,135.646,237.853z"/>
	</g>
	<g>
		<g>
			<g>
				<g>
					<g>
						<g>
							<path style="fill:#FAB077;" d="M36.975,191.431c0,0-21.732-14.767-15.588-31.15c6.146-16.414,59.449-47.983,146.752-38.957
								c63.031,6.524,95.654,41.052,89.387,55.341c-9.215,20.967-51.252,35.256-107.812,39.352
								C93.125,220.131,36.975,191.431,36.975,191.431z"/>
							<path style="fill:#F5841F;" d="M138.408,217.191c-52.1,0-101.309-24.846-101.797-25.072
								c-0.297-0.205-5.658-3.873-10.334-9.645c-6.281-7.73-8.211-15.495-5.607-22.464c5.199-13.876,46.148-41.036,117.25-41.036
								c9.865,0,20.078,0.536,30.299,1.577c21.615,2.244,41.719,8.037,58.088,16.79c13.615,7.266,24.385,16.524,29.555,25.385
								c3.203,5.521,4.01,10.456,2.354,14.246c-9.106,20.673-49.633,35.544-108.459,39.811
								C146.08,217.057,142.256,217.191,138.408,217.191z M137.92,120.499c-70.363,0-110.738,26.518-115.816,40.026
								c-5.85,15.667,15.088,30.105,15.303,30.244c0.408,0.214,49.295,24.882,101.002,24.882c3.811,0,7.578-0.122,11.24-0.395
								c58.242-4.226,98.326-18.759,107.146-38.887c1.445-3.298,0.631-7.866-2.281-12.875c-9.674-16.628-40.85-36.686-86.443-41.416
								C157.889,121.023,147.729,120.499,137.92,120.499z"/>
						</g>
						<path style="fill:#FAB077;" d="M168.139,121.323c-71.877-7.435-120.68,12.657-139.121,29.135
							c0.744,27.596,43.875,40.011,65.68,44.754c20.83,4.564,41.94,5.554,63.176,3.689c10.498-0.919,21.332-1.865,31.598-4.28
							c3.064-0.717,6.053-1.92,9.129-2.502c1.945-0.352,3.609-0.135,5.564-0.135c0.68,0,0.963,0.852,0.531,1.323
							c-8.146,8.915-20.563,12.146-31.965,14.411c-13.424,2.66-26.904,5.529-40.469,7.443c-2.021,0.287-4.096,0.561-6.131,0.811
							c7.75,0.543,15.654,0.625,23.582,0.043c56.561-4.096,98.598-18.385,107.812-39.352
							C263.793,162.375,231.17,127.848,168.139,121.323z"/>
						<g>
							<g>
								<path style="fill:#2E7EBF;" d="M261.236,170.097c0,2.323-6.766,2.489-8.604,4.678c-1.391,1.675,1.014,8.145-1.359,9.685
									c-1.895,1.243-7.287-3.255-9.729-2.106c-2.125,1.011-1.893,8-4.391,8.919c-2.229,0.832-6.688-4.608-9.199-3.843
									c-2.293,0.695-2.932,7.691-5.459,8.313c-2.336,0.591-6.266-5.217-8.793-4.679c-2.359,0.53-3.537,7.443-6.066,7.891
									c-2.402,0.456-5.939-5.604-8.496-5.217c-2.404,0.382-3.945,7.216-6.496,7.541c-2.434,0.324-5.674-5.903-8.199-5.607
									c-2.443,0.254-4.295,7.023-6.826,7.253c-2.443,0.229-5.439-6.117-7.965-5.939c-2.475,0.159-4.568,6.87-7.107,6.977
									c-2.457,0.138-5.238-6.301-7.779-6.225c-2.471,0.092-4.811,6.699-7.35,6.742c-2.486,0.043-5.039-6.497-7.564-6.497
									c-2.514,0-5.066,6.54-7.551,6.497c-2.516-0.043-4.848-6.65-7.334-6.742c-2.514-0.076-5.283,6.362-7.758,6.225
									c-2.551-0.107-4.631-6.803-7.115-6.977c-2.527-0.178-5.525,6.169-7.984,5.939c-2.523-0.23-4.373-6.999-6.822-7.253
									c-2.523-0.297-5.768,5.931-8.227,5.607c-2.527-0.325-4.076-7.159-6.484-7.541c-2.512-0.387-6.08,5.673-8.498,5.217
									c-2.51-0.447-3.697-7.36-6.063-7.891c-2.514-0.538-6.443,5.27-8.795,4.679c-2.508-0.621-3.158-7.617-5.441-8.313
									c-2.529-0.766-6.982,4.666-9.199,3.843c-2.5-0.919-2.295-7.908-4.395-8.919c-2.467-1.148-7.844,3.35-9.75,2.106
									c-2.377-1.553,0.041-8.021-1.35-9.699c-1.836-2.174-8.604-2.34-8.604-4.663l25.395,103.314
									c3.943,13.067,45.406,23.37,95.975,23.37c50.602,0,92.047-10.303,96.002-23.37L261.236,170.097z"/>
								<path style="fill:#005387;" d="M139.854,297.547c-51.008,0-92.598-10.287-96.719-23.918L17.891,170.901
									c-0.107-0.257-0.152-0.518-0.152-0.805c0-0.386,0.285-0.701,0.668-0.754c0.373-0.07,0.736,0.205,0.824,0.585l0.129,0.413
									c0.393,0.625,2.108,1.154,3.5,1.583c1.893,0.598,3.822,1.191,4.809,2.352c0.811,0.971,0.688,2.697,0.553,4.685
									c-0.148,1.907-0.322,4.243,0.637,4.841c0.096,0.092,0.244,0.104,0.432,0.104c0.824,0,2.135-0.578,3.391-1.133
									c2.123-0.909,4.402-1.785,5.838-1.123c1.32,0.652,1.836,2.624,2.389,4.702c0.445,1.715,0.986,3.864,1.922,4.188
									c0.688,0.273,2.35-0.823,3.736-1.742c1.877-1.282,3.893-2.553,5.418-2.094c1.484,0.432,2.244,2.388,3.092,4.455
									c0.635,1.61,1.42,3.619,2.336,3.842c0.797,0.172,2.313-1.068,3.621-2.125c1.814-1.497,3.58-2.887,5.162-2.553
									c1.514,0.324,2.445,2.241,3.432,4.271c0.768,1.54,1.689,3.433,2.605,3.616l0,0c0.977,0,2.313-1.252,3.502-2.363
									c1.713-1.593,3.361-3.12,4.953-2.848c1.582,0.23,2.609,2.094,3.715,4.091c0.84,1.487,1.863,3.324,2.76,3.432l0,0
									c0.947,0,2.24-1.35,3.428-2.538c1.607-1.675,3.176-3.255,4.799-3.08c1.578,0.162,2.715,2.027,3.898,3.956
									c0.883,1.433,1.986,3.23,2.881,3.313l0,0c0.934,0,2.176-1.448,3.336-2.703c1.498-1.688,2.934-3.271,4.48-3.271
									c0.018,0,0.154,0.016,0.18,0.016c1.594,0.095,2.795,1.893,4.078,3.8c0.947,1.399,2.109,3.156,2.986,3.196l0,0
									c0.895,0,2.201-1.58,3.24-2.823c1.461-1.757,2.84-3.413,4.443-3.413c1.693,0.036,2.965,1.806,4.297,3.67
									c1.002,1.348,2.217,3.057,3.096,3.077c0.904,0,2.158-1.632,3.162-2.954c1.412-1.825,2.783-3.543,4.389-3.543
									c1.664,0,2.998,1.718,4.4,3.543c1.029,1.322,2.301,2.954,3.137,2.954c0.904-0.021,2.137-1.73,3.146-3.077
									c1.34-1.864,2.609-3.634,4.217-3.67l0,0c1.686,0,3.064,1.656,4.553,3.413c1.012,1.243,2.309,2.823,3.162,2.823
									c0.918-0.04,2.102-1.797,3.041-3.196c1.291-1.907,2.494-3.705,4.072-3.8c0.027-0.016,0.15-0.016,0.182-0.016
									c1.576,0,2.982,1.583,4.492,3.271c1.125,1.255,2.396,2.703,3.258,2.703c0.932-0.083,2.043-1.88,2.947-3.313
									c1.188-1.929,2.336-3.781,3.898-3.956c1.611-0.146,3.191,1.405,4.785,3.08c1.188,1.206,2.471,2.551,3.338,2.551
									c0.984-0.12,2-1.957,2.836-3.444c1.109-1.997,2.162-3.861,3.713-4.091c1.607-0.272,3.254,1.243,4.975,2.835
									c1.178,1.124,2.523,2.376,3.377,2.376c1.023-0.184,1.957-2.076,2.697-3.616c1.002-2.029,1.947-3.946,3.475-4.271
									c1.564-0.334,3.336,1.056,5.143,2.553c1.328,1.081,2.867,2.313,3.623,2.132c0.906-0.229,1.705-2.238,2.336-3.849
									c0.838-2.067,1.609-4.023,3.086-4.455c1.51-0.459,3.533,0.811,5.412,2.094c1.393,0.946,3.041,2.003,3.713,1.742
									c0.947-0.324,1.5-2.458,1.945-4.188c0.543-2.078,1.059-4.038,2.408-4.688c1.432-0.677,3.701,0.199,5.793,1.121
									c1.297,0.542,2.58,1.139,3.404,1.139c0.174,0,0.34-0.03,0.418-0.11c0.975-0.609,0.799-2.945,0.676-4.837
									c-0.16-1.987-0.27-3.73,0.527-4.7c0.986-1.16,2.932-1.754,4.834-2.352c1.367-0.429,3.082-0.958,3.514-1.552l0.107-0.444
									c0.078-0.38,0.422-0.624,0.826-0.585c0.391,0.053,0.688,0.368,0.688,0.754c0,0.287-0.065,0.548-0.188,0.805l-25.219,102.696
									C232.453,287.26,190.887,297.547,139.854,297.547z M19.875,172.521l24.73,100.7c3.865,12.767,45.715,22.791,95.248,22.791
									c49.549,0,91.408-10.024,95.273-22.822l24.721-100.669c-0.717,0.321-1.607,0.594-2.537,0.875
									c-1.584,0.487-3.393,1.054-4.08,1.861c-0.435,0.515-0.287,2.232-0.205,3.607c0.162,2.409,0.363,5.122-1.338,6.239
									c-1.148,0.76-3.16,0.016-5.297-0.903c-1.742-0.78-3.686-1.539-4.537-1.148c-0.678,0.324-1.186,2.186-1.537,3.701
									c-0.596,2.273-1.221,4.623-2.904,5.23c-1.369,0.499-3.232-0.637-5.096-1.92c-1.514-0.998-3.258-2.186-4.131-1.904
									c-0.773,0.23-1.512,2.092-2.123,3.579c-0.826,2.135-1.701,4.323-3.391,4.759c-1.457,0.373-3.176-0.978-4.943-2.447
									c-1.379-1.139-3-2.443-3.85-2.24c-0.809,0.174-1.691,1.983-2.42,3.441c-0.971,2.057-2.023,4.176-3.686,4.457
									c-1.541,0.273-3.135-1.172-4.836-2.752c-1.201-1.151-2.625-2.459-3.553-2.459c-0.949,0.123-1.934,1.914-2.713,3.331
									c-1.148,2.061-2.26,3.989-3.908,4.231c-1.607,0.189-3.104-1.35-4.697-2.994c-1.203-1.237-2.557-2.643-3.449-2.643
									c-0.916,0.083-2.012,1.825-2.848,3.23c-1.252,1.984-2.404,3.892-4.066,4.045c-0.027,0-0.176,0.021-0.189,0.021
									c-1.541,0-2.93-1.579-4.406-3.211c-1.16-1.299-2.471-2.771-3.344-2.771c-0.891,0.052-2.053,1.761-2.963,3.147
									c-1.307,1.929-2.553,3.76-4.215,3.864l0,0c-1.699,0-3.035-1.648-4.496-3.377c-1.07-1.283-2.391-2.866-3.27-2.866
									c-0.848,0.031-2.08,1.693-3.039,3.04c-1.379,1.877-2.678,3.662-4.334,3.692c-1.648,0-2.988-1.705-4.381-3.512
									c-1.024-1.325-2.309-2.991-3.213-2.991c-0.865,0-2.15,1.666-3.176,2.991c-1.418,1.807-2.754,3.512-4.35,3.512
									c-1.701-0.03-2.998-1.815-4.348-3.692c-0.975-1.347-2.188-3.009-3.055-3.04l0,0c-0.875,0-2.172,1.516-3.281,2.866
									c-1.443,1.729-2.797,3.377-4.361,3.377c-1.771-0.092-3.025-1.936-4.326-3.864c-0.914-1.387-2.061-3.096-2.918-3.147l0,0
									c-0.945,0-2.256,1.473-3.404,2.771c-1.467,1.632-2.848,3.19-4.404,3.211c-0.027,0-0.16-0.021-0.186-0.021
									c-1.676-0.153-2.838-2.061-4.051-4.045c-0.881-1.405-1.949-3.147-2.773-3.23l0,0c-1.012,0-2.359,1.405-3.551,2.643
									c-1.605,1.645-3.146,3.184-4.703,2.994c-1.656-0.242-2.752-2.171-3.9-4.231c-0.799-1.417-1.771-3.208-2.623-3.331
									c0,0,0,0-0.014,0c-1.027,0-2.402,1.308-3.645,2.459c-1.676,1.58-3.283,3.024-4.84,2.752c-1.645-0.281-2.697-2.4-3.686-4.445
									c-0.715-1.47-1.592-3.279-2.416-3.453c-0.867-0.193-2.475,1.102-3.836,2.24c-1.771,1.47-3.514,2.836-4.961,2.447
									c-1.672-0.436-2.568-2.624-3.414-4.759c-0.58-1.487-1.326-3.349-2.096-3.579c-0.889-0.281-2.621,0.906-4.121,1.904
									c-1.9,1.271-3.756,2.419-5.119,1.92c-1.699-0.606-2.279-2.985-2.877-5.23c-0.395-1.527-0.877-3.392-1.568-3.701
									c-0.861-0.392-2.797,0.367-4.539,1.133c-2.131,0.934-4.131,1.65-5.307,0.909c-1.686-1.124-1.484-3.821-1.324-6.243
									c0.107-1.378,0.219-3.105-0.176-3.607c-0.688-0.811-2.5-1.362-4.092-1.85C21.467,173.115,20.604,172.843,19.875,172.521z"/>
							</g>
						</g>
						<g>
							<path style="fill:#005387;" d="M148,204.277l-2.553,92.369c0,0.392,0.336,0.753,0.754,0.766c0,0,0,0,0.029,0
								c0.408,0,0.742-0.337,0.768-0.753l2.529-92.369c0-0.404-0.328-0.773-0.744-0.773
								C148.416,203.518,148.027,203.855,148,204.277z"/>
							<path style="fill:#005387;" d="M161.387,204.247l-5.213,91.683c-0.014,0.407,0.309,0.757,0.725,0.787
								c0.029,0.006,0.029,0.006,0.043,0.006c0.406,0,0.73-0.309,0.768-0.722l5.217-91.687c0.025-0.404-0.297-0.769-0.715-0.797
								C161.781,203.482,161.414,203.818,161.387,204.247z"/>
							<path style="fill:#005387;" d="M176.207,202.859l-8.809,91.665c-0.055,0.42,0.254,0.787,0.672,0.839c0.027,0,0.068,0,0.084,0
								c0.389,0,0.719-0.287,0.754-0.704l8.82-91.637c0.045-0.439-0.279-0.8-0.717-0.852
								C176.607,202.141,176.217,202.456,176.207,202.859z"/>
							<path style="fill:#005387;" d="M192.143,201.629c-0.432-0.027-0.807,0.27-0.877,0.677l-11.572,91.099
								c-0.057,0.401,0.227,0.796,0.658,0.866c0.014,0,0.064,0.01,0.082,0.01c0.377,0,0.729-0.322,0.768-0.674l11.578-91.099
								C192.844,202.088,192.535,201.696,192.143,201.629z"/>
							<path style="fill:#005387;" d="M207.773,198.672c-0.404-0.083-0.826,0.214-0.875,0.633l-14.635,92.164
								c-0.066,0.408,0.219,0.79,0.621,0.882c0.043,0.013,0.082,0.013,0.139,0.013c0.377,0,0.686-0.285,0.744-0.652l14.639-92.148
								C208.475,199.115,208.193,198.735,207.773,198.672z"/>
							<path style="fill:#005387;" d="M223.432,194.593c-0.439-0.082-0.826,0.185-0.936,0.619l-17.652,93.489
								c-0.098,0.439,0.174,0.824,0.59,0.895c0.072,0.009,0.109,0.009,0.164,0.009c0.365,0,0.676-0.238,0.746-0.602l17.682-93.506
								C224.119,195.064,223.818,194.657,223.432,194.593z"/>
							<path style="fill:#005387;" d="M238.516,190.524c-0.432-0.104-0.824,0.165-0.916,0.569l-21.289,94.316
								c-0.08,0.416,0.158,0.812,0.607,0.903c0.025,0.012,0.109,0.027,0.133,0.027c0.365,0,0.693-0.23,0.758-0.597l21.287-94.302
								C239.18,191.035,238.924,190.619,238.516,190.524z"/>
							<path style="fill:#005387;" d="M252.498,182.895c-0.406-0.123-0.824,0.132-0.902,0.554l-24.602,97.568
								c-0.107,0.392,0.123,0.808,0.539,0.931c0.072,0,0.137,0.027,0.209,0.027c0.32,0,0.645-0.245,0.736-0.594l24.586-97.568
								C253.162,183.421,252.916,183.017,252.498,182.895z"/>
							<path style="fill:#005387;" d="M131.736,203.518c-0.42,0-0.758,0.368-0.758,0.773l2.555,92.369
								c0.025,0.416,0.361,0.753,0.779,0.753h0.014c0.438-0.013,0.758-0.374,0.758-0.766l-2.551-92.369
								C132.521,203.855,132.139,203.518,131.736,203.518z"/>
							<path style="fill:#005387;" d="M118.322,203.518c-0.422,0.028-0.756,0.393-0.717,0.797l5.213,91.687
								c0.016,0.413,0.365,0.722,0.744,0.722c0.029,0,0.053,0,0.066-0.006c0.438-0.03,0.758-0.38,0.73-0.787l-5.227-91.683
								C119.117,203.818,118.754,203.482,118.322,203.518z"/>
							<path style="fill:#005387;" d="M103.488,202.171c-0.416,0.052-0.717,0.413-0.678,0.852l8.801,91.637
								c0.049,0.417,0.387,0.704,0.766,0.704c0.027,0,0.041,0,0.066,0c0.42-0.052,0.746-0.419,0.703-0.839l-8.82-91.665
								C104.287,202.456,103.91,202.141,103.488,202.171z"/>
							<path style="fill:#005387;" d="M88.4,201.629c-0.43,0.067-0.701,0.459-0.66,0.879l11.59,91.099
								c0.012,0.352,0.363,0.674,0.74,0.674c0.033,0,0.068-0.01,0.098-0.01c0.432-0.07,0.73-0.465,0.689-0.866l-11.605-91.099
								C89.213,201.898,88.803,201.602,88.4,201.629z"/>
							<path style="fill:#005387;" d="M72.744,198.672c-0.404,0.063-0.676,0.443-0.637,0.891l14.645,92.148
								c0.07,0.367,0.395,0.652,0.748,0.652c0.039,0,0.092,0,0.135-0.013c0.428-0.092,0.686-0.474,0.631-0.882l-14.643-92.164
								C73.559,198.886,73.176,198.607,72.744,198.672z"/>
							<path style="fill:#005387;" d="M57.117,194.593c-0.432,0.064-0.674,0.472-0.623,0.903l17.682,93.506
								c0.07,0.364,0.406,0.602,0.758,0.602c0.053,0,0.092,0,0.137-0.009c0.418-0.07,0.711-0.456,0.619-0.895l-17.682-93.489
								C57.926,194.777,57.52,194.511,57.117,194.593z"/>
							<path style="fill:#005387;" d="M42.016,190.524c-0.406,0.095-0.664,0.511-0.568,0.918l21.264,94.302
								c0.078,0.367,0.4,0.597,0.736,0.597c0.084,0,0.123-0.016,0.18-0.027c0.404-0.092,0.689-0.487,0.58-0.903l-21.271-94.316
								C42.828,190.689,42.42,190.42,42.016,190.524z"/>
							<path style="fill:#005387;" d="M28.006,182.895c-0.393,0.122-0.66,0.526-0.553,0.918l24.596,97.568
								c0.098,0.349,0.406,0.594,0.76,0.594c0.064,0,0.121-0.027,0.185-0.027c0.408-0.123,0.668-0.539,0.557-0.931l-24.598-97.568
								C28.844,183.026,28.408,182.784,28.006,182.895z"/>
						</g>
						<path style="fill:#2E7EBF;" d="M31.887,190.188c0,0.823,22.135,90.195,22.135,90.195l3.541,2.174L31.887,190.188z"/>
					</g>
					<path style="fill:#2E7EBF;" d="M45.107,194.296c0,0,20.479,90.585,20.479,90.829c0,0.285,0,0.285,0,0.285l5.633,2.281
						L45.107,194.296z"/>
					<path style="fill:#2E7EBF;" d="M59.469,198.145c0,0,17.369,91.338,17.369,91.087c0-0.258,5.389,1.282,5.389,1.282
						L59.469,198.145z"/>
					<polygon style="fill:#2E7EBF;" points="22.615,179.704 45.404,273.873 48.957,277.465 					"/>
					<polygon style="fill:#2E7EBF;" points="76.082,203.255 90.156,291.282 94.182,292.174 					"/>
					<polygon style="fill:#2E7EBF;" points="91.424,204.789 102.23,293.31 107.424,293.31 					"/>
					<polygon style="fill:#2E7EBF;" points="105.896,204.464 114.717,293.698 119.898,293.698 					"/>
					<polygon style="fill:#2E7EBF;" points="120.277,205.438 125.479,294.295 129.695,294.295 					"/>
					<polygon style="fill:#2E7EBF;" points="134.871,207.223 136.465,294.093 140.826,294.351 					"/>
					<polygon style="fill:#2E7EBF;" points="150.982,206.966 148.27,294.351 152.336,294.093 					"/>
					<polygon style="fill:#2E7EBF;" points="163.773,205.695 158.992,294.093 162.83,294.093 					"/>
					<polygon style="fill:#2E7EBF;" points="179.578,205.238 170.951,293.31 174.191,293.065 					"/>
					<polygon style="fill:#2E7EBF;" points="194.031,202.737 182.717,292.55 185.994,292.309 					"/>
					<polygon style="fill:#2E7EBF;" points="210.287,198.913 195.389,289.861 198.643,289.596 					"/>
					<polygon style="fill:#2E7EBF;" points="225.646,194.419 207.664,287.186 210.932,286.923 					"/>
					<polygon style="fill:#2E7EBF;" points="240.99,186.822 219.551,283.353 223.336,281.421 					"/>
					<polygon style="fill:#2E7EBF;" points="254.619,179.909 230.115,277.4 233.697,274.14 					"/>
				</g>
				<g>
					<g>
						<g>
							<path style="fill:#FEFEFF;" d="M246.381,131.185c-4.336-15.373-17.291-27.54-30.25-36.634
								c-4.561-3.218-25.188-13.723-30.779-18.468c-7.719-6.513-16.781-18.221-19.414-28.287c-2.488-9.436,1.486-20.48,2.133-29.784
								c-9.453,10.333-21.979,19.328-34.281,25.804C110.756,55.982,87.848,68.41,67.572,84.932
								c-14.334,11.698-29.531,23.327-35.543,41.686c-5.981,18.425,1.164,36.676,17.32,47.021
								c13.021,8.334,28.125,12.145,43.172,14.672c12.873,2.186,25.867,3.552,38.879,4.023c17.789,0.648,35.703,0.27,53.313-2.373
								c19.209-2.906,44.713-8.013,55.955-25.78C247.041,154.2,249.623,142.706,246.381,131.185z"/>
							<path style="fill:#F6A5A9;" d="M145.891,193.378L145.891,193.378c-4.646,0-9.375-0.099-14.504-0.285
								c-12.713-0.432-25.83-1.815-38.986-4.014c-12.863-2.174-29.434-5.823-43.457-14.804
								c-16.695-10.673-23.598-29.487-17.625-47.889c5.764-17.666,19.92-29.159,33.645-40.319l2.137-1.733
								c19.963-16.275,41.859-28.296,66.35-41.201c13.189-6.953,25.291-16.056,34.053-25.66l1.49-1.607l-0.148,2.188
								c-0.217,3.102-0.797,6.311-1.393,9.736c-1.174,6.69-2.393,13.644-0.773,19.804c2.57,9.874,11.578,21.521,19.158,27.907
								c3.363,2.826,12.473,7.918,19.805,12.023c4.891,2.74,9.131,5.089,10.943,6.378c16.855,11.886,26.85,24.016,30.521,37.08
								c3.137,11.117,1.152,22.73-5.766,33.624c-10.912,17.164-34.688,22.822-56.506,26.107
								C172.936,192.483,160.209,193.378,145.891,193.378z M167.104,20.16c-8.744,9.121-20.344,17.697-32.934,24.329
								c-24.408,12.887-46.242,24.837-66.098,41.052l-2.164,1.724c-13.508,11.013-27.5,22.359-33.119,39.609
								c-5.779,17.712,0.889,35.795,16.979,46.122c13.779,8.833,30.164,12.424,42.887,14.555c13.076,2.22,26.154,3.57,38.797,4.015
								c5.092,0.186,9.793,0.272,14.439,0.272l0,0c14.238,0,26.896-0.855,38.715-2.651c21.481-3.228,44.861-8.763,55.424-25.438
								c6.689-10.479,8.648-21.68,5.621-32.347c-3.59-12.728-13.387-24.573-29.963-36.232c-1.758-1.228-5.93-3.579-10.793-6.308
								c-7.777-4.35-16.584-9.252-20.061-12.2c-7.738-6.55-16.965-18.49-19.652-28.677c-1.701-6.482-0.443-13.601,0.773-20.477
								C166.414,24.971,166.844,22.527,167.104,20.16z"/>
						</g>
						<path style="opacity:0.5;fill:#F6A5A9;" d="M241.557,121.105c-0.188-0.462-0.889,0.324-0.973,0.456
							c-7.119,11.259-22.625,19.755-35.932,22.198c-19.762,3.649-49.225,0.597-61.449-17.709c-0.137-0.163-0.488,0.229-0.404,0.364
							c12.076,20.884,41.469,23.936,62.842,20.504c9.711-1.564,18.156-7.146,25.922-12.874
							C233.697,132.468,242.826,124.709,241.557,121.105z"/>
						<path style="opacity:0.5;fill:#F6A5A9;" d="M240.721,129.534c-21.914,38.783-84.402,36.34-107.162,0.202
							c-12.062-19.166-9.43-43.28,0.973-62.612c4.701-8.763,10.916-16.708,16.889-24.649c4.684-6.203,8.807-12.697,13.234-19.032
							c-8.604,15.64-21.141,28.691-27.652,45.764c-6.266,16.441-4.24,33.177,9.32,44.943c14.061,12.21,34.488,14.167,52.277,12.547
							c9.027-0.796,18.564-3.729,26.602-7.887c3.857-2.024,5.455-4.942,8.238-7.859c0.258-0.301,0.482-1.219-0.105-0.717
							c-5.285,4.351-9.58,7.697-16.133,9.944c-8.32,2.848-16.479,4.237-25.299,4.409c-17.346,0.397-33.705-4.896-46.592-16.49
							c-15.955-14.332-8.094-38.076,0.553-53.887c5.096-9.329,12.754-17.596,17.91-26.986
							c-6.953,17.911-16.477,34.487-17.787,54.397c-1.564,24.139,18.668,35.568,39.393,39.57c0.416,0.064,1.176-1.004,0.701-1.148
							c-10.295-3.099-19.049-6.154-26.922-13.756c-9.646-9.391-11.336-22.492-9.174-35.216c1.902-11.319,6.16-22.329,10.512-32.88
							c0.254-0.606,0.553-1.296,0.826-1.957c-6.016,20.452-9.025,41.971,7.154,59.043c8.93,9.414,21.061,14.133,33.732,14.877
							c8.051,0.468,17.896-0.435,23.813-6.596c0.471-0.447,0.516-1.362-0.283-0.701c-7.172,6.243-18.355,5.496-27.068,4.514
							c-11.184-1.299-21.76-8.889-29.088-17.115c-10.469-11.739-11.33-25.409-9.277-39.312c-0.215,8.138,1.041,16.181,4.838,23.734
							c7.631,15.076,27.799,21.912,43.412,17.725c0.283-0.096,0.881-0.977,0.379-0.892c-16.049,2.281-32.391-5.915-40.795-19.724
							c-7.605-12.531-5.805-28.608-3.131-42.886c0.266-1.163,0.51-2.302,0.781-3.435c0.746-2.116,1.35-4.266,1.621-6.348
							c0.064-0.174,0.123-0.324,0.176-0.483c0.041-0.153,0-0.168-0.084-0.153c0.014-0.214,0.084-0.459,0.098-0.688
							c0-0.364-0.529,0.218-0.568,0.34c-0.23,0.759-0.496,1.488-0.754,2.229l0,0c-2.396,2.731-4.662,5.606-6.877,8.539
							c0-0.138-0.016-0.244-0.094-0.315c1.283-1.497,2.582-3.024,3.809-4.577c0.322-0.403,0.027-0.624-0.322-0.257
							c-1.664,1.907-3.408,3.768-5.164,5.621c-8.574,5.566-17.008,12.104-25.107,18.303c-9.996,7.603-19.133,15.505-27.83,24.626
							c-15.25,16.034-25.547,34.849-21.611,57.569c0.051,0.261,0.611-0.309,0.596-0.535c-3.949-43.688,34.834-67.68,65.565-91.51
							c-15.547,15.224-32.352,30.018-42.01,49.426c-12.939,26.059-10.398,56.74,14.994,73.975c0.484,0.352,1.553-0.989,1.121-1.421
							c-9.361-8.903-16.359-18.691-19.543-31.352c-3.988-15.79,0.523-32.176,8.496-45.911c10.98-18.939,28.422-33.477,43.193-49.654
							c0.805-0.684,1.623-1.353,2.422-2.019c-3.727,5.013-7.334,10.108-11.09,15.009c-6.904,9.024-13.467,18.331-17.982,28.814
							c-8.736,20.396-8.604,44.187,5.219,62.327c25.92,33.973,86.652,30.795,107.188-7.403
							C241.602,128.98,240.949,129.118,240.721,129.534z"/>
						<path style="opacity:0.5;fill:#F6A5A9;" d="M244.799,153.783c-0.609,0.895-1.27,1.745-1.973,2.569
							c4.352-6.497,6.74-13.892,4.795-22.115c-0.135-0.487-0.943,0.554-0.973,0.796c-0.078,1.421-0.188,2.796-0.324,4.134
							c-4.471,9.185-16.018,18.453-24.908,22.656c-12.805,6.022-24.449,9.183-38.699,9.682c-22.887,0.808-54.494-9.023-63.02-32.715
							c-0.076-0.235-0.553,0.267-0.488,0.483c8.596,29.797,45.85,37.73,72.529,34.622c13.199-1.54,25.678-5.578,36.447-13.588
							c5.697-4.228,13.773-10.811,17.707-17.788c-0.984,6.252-3.08,11.6-7.82,17.246c-19.545,17.223-48.09,21.264-73.418,20.156
							c-30.053-1.314-62.715-10.579-76.346-39.943c-0.123-0.309-0.77,0.376-0.666,0.664c8.295,22.299,26.355,33.657,47.107,38.752
							c-11.604-1.92-23.047-5.025-34.287-9.305c-11.063-4.23-21.492-10.051-29.297-19.074c-9.998-11.576-9.756-26.814-5-40.528
							c4.811-13.857,14.916-25.623,25.139-35.782c8.941-8.9,19.762-17.491,29.951-25.032c0.092-0.095,0.322-0.579,0.049-0.417
							c-10.834,6.527-21.002,15.805-30.5,24.13c-10.256,8.976-19.031,20.663-24.977,32.901c-5.377,11.102-7.67,23.802-3.85,35.687
							c4.039,12.534,15.088,21.156,26.465,26.732c27.068,13.251,59.084,16.5,88.746,13.98c0.783-0.025,1.584-0.12,2.389-0.199
							c15.445-1.026,32.502-4.121,46.084-11.815c0.359-0.181,0.707-0.395,1.061-0.575c-2.537,1.815-5.197,3.447-7.967,5.006
							c-11.857,6.573-25.289,9.87-38.582,11.72c-29.973,4.213-62.963,4.66-91.529-6.319c-0.152-0.067-0.459,0.392-0.336,0.46
							c31.59,14.102,68.512,12.682,101.959,6.769c14.871-2.649,31.541-9.84,42.727-20.158c1.701-1.595,3.389-3.282,4.998-5.036
							c2.957-2.557,5.645-5.404,7.9-8.595C246.691,152.798,245.322,153.027,244.799,153.783z"/>
						<path style="opacity:0.5;fill:#F6A5A9;" d="M99.865,63.315c-21.15,10.04-38.562,26.031-47.68,47.88
							c-4.514,10.749-6.105,22.35-4.229,33.871c2.096,12.716,10.484,21.536,21.006,28.181c0.309,0.192,0.986-0.661,0.689-0.892
							c-18.779-14.166-22.572-35.604-16.185-57.435c6.877-23.495,26.748-38.174,46.295-50.711
							C99.988,64.047,100.49,63.031,99.865,63.315z"/>
						<path style="opacity:0.5;fill:#F6A5A9;" d="M65.721,87.604c-18.412,13.968-35.361,40.984-24.879,64.274
							c0.158,0.297,0.715-0.367,0.646-0.625c-7.146-24.123,7.861-46.563,24.383-62.756C66.209,88.161,66.488,86.995,65.721,87.604z"
							/>
						<path style="opacity:0.4;fill:#FBC5B9;" d="M246.381,131.185c-4.336-15.373-17.291-27.54-30.25-36.634
							c-4.561-3.218-25.188-13.723-30.779-18.468c-7.719-6.513-16.781-18.221-19.414-28.287c-2.488-9.436,1.486-20.48,2.133-29.784
							c-0.145,0.146-0.295,0.284-0.443,0.456c-4.758,8.435-14.119,14.853-21.426,20.237c-7.617,5.634-15.33,11.176-22.816,16.94
							c-7.076,5.46-14.291,10.836-20.193,17.587c-12.166,13.982-23.625,34.601-20.477,53.725
							c2.646,15.856,12.074,31.863,25.855,40.445c0.861,0.523,0.096,1.837-0.76,1.319c-9.549-5.848-19.166-11.558-25.611-21.004
							c-6.742-9.864-10.711-21.882-11.291-33.835c-0.34-6.934,0.773-13.351,3.174-19.362c-9.645,14.28-15.301,30.798-10.428,48.28
							c0.188,0.701-0.774,1.348-1.283,0.744c-12.088-14.589-9.658-31.003-1.877-45.739c-0.771,1.228-1.512,2.474-2.229,3.727
							c-5.852,10.728-9.105,23.422-8.32,35.678c0.432,7.036,1.836,14.044,5.305,20.244c2.744,4.948,6.205,9.351,9.605,13.821
							c0.545,0.701-0.604,1.503-1.201,0.921c-11.713-10.942-21.6-23.614-21.387-40.405c0.18-12.186,4.594-23.624,11.309-33.597
							c-0.338,0.444-0.726,0.854-1.063,1.283c-5.877,7.471-10.84,15.997-12.892,25.345c-2.387,10.872-1.213,21.506,1.004,32.295
							c0.146,0.677-0.773,1.421-1.283,0.748c-6.217-7.836-8.725-17.223-8.473-26.738c-3.551,16.86,3.646,33.018,18.481,42.512
							c13.021,8.334,28.125,12.145,43.172,14.672c12.873,2.186,25.867,3.552,38.879,4.023c17.789,0.648,35.703,0.27,53.313-2.373
							c19.209-2.906,44.713-8.013,55.955-25.78C247.041,154.2,249.623,142.706,246.381,131.185z M123.672,163.357
							c-8.391-5.643-17.439-10.942-23.369-19.365c-6.094-8.635-10.539-19.427-9.523-30.167c1.012-10.496,4.453-20.587,10.457-29.286
							c2.09-3.04,4.439-5.753,6.955-8.349c-0.232-0.267-0.324-0.674-0.016-1.026c5.201-6.08,10.621-12.979,18.508-15.56
							c0.637-0.202,1.242,0.579,0.865,1.133c-2.865,4.174-6.754,7.309-10.094,11.05c-3.594,3.999-6.67,8.689-9.129,13.509
							c-4.596,8.986-6.934,18.777-6.74,28.896c0.365,18.26,7.457,37.077,22.854,47.843
							C125.248,162.605,124.512,163.915,123.672,163.357z M199.789,134.488c-1.861,4.449-7.725,6.001-12.01,6.871
							c-5.133,1.037-10.631,1.751-15.875,1.12c-13.906-1.65-25.35-10.651-33.074-21.9c2.551,9.755,10.369,17.051,17.488,23.906
							c0.58,0.581-0.021,1.463-0.742,1.298c-10.91-2.495-19.859-9.13-25.813-17.936c0.836,2.486,1.623,4.973,2.205,7.525
							c0.035,0.147,0.012,0.294-0.016,0.393c0.15,0.266,0.295,0.508,0.432,0.753c6.902,8.943,16.031,16.116,25.324,22.966
							c0.65,0.459,0.381,1.335-0.4,1.418c-8.758,1.16-18.916-4.566-25.965-9.213c-8.525-5.634-14.182-14.656-16.709-24.494
							c-6.078-23.731,2.551-48.764,16.965-67.756c0.582-0.769,1.809-0.107,1.301,0.787c-7.408,12.936-11.309,28.431-10.742,43.47
							c0.432-0.189,1.092,0.024,1.137,0.658c0.068,0.919,0.174,1.81,0.268,2.716c0.338-9.592,1.729-19.058,6.24-27.662
							c0.365-0.701,1.418-0.353,1.434,0.389c0.395,15.891,6.617,30.65,19.178,40.69c6.811,5.483,14.594,10.009,23.074,12.198
							c8.697,2.244,16.723,1.509,25.543,0.851C199.477,133.493,199.953,134.06,199.789,134.488z M209.799,111.057
							c-3.01,3.16-8.416,3.527-12.469,4.391c-5.916,1.27-11.902,0.919-17.83-0.018c-10.047-1.563-18.693-5.576-25.652-12.774
							c2.881,9.874,12.063,15.848,21.857,18.356c0.703,0.192,0.688,1.038,0.174,1.405c-2.309,1.77-5.135,1.011-7.699,0.165
							c-0.297-0.122-0.619-0.202-0.92-0.315c-14.449,0.344-25.742-14.549-28.715-27.47c-4-17.345,5.185-34.992,16.182-47.784
							c0.514-0.578,1.555,0.046,1.311,0.747c-3.445,9.063-6.268,18.545-6.646,28.3c-0.109,2.676-0.014,5.349,0.166,7.981
							c0.359-5.565,1.469-11.104,3.455-16.212c0.309-0.808,1.443-0.704,1.5,0.193c0.809,11.938,6.445,24.271,16.49,31.229
							c5.092,3.524,11.199,6.185,17.037,8.251c6.861,2.459,13.789,3.757,21.031,2.257
							C209.799,109.612,210.381,110.487,209.799,111.057z"/>
					</g>
					<g>
						<path style="fill:#BC668F;" d="M79.932,141.84c0,2.624-2.121,4.73-4.752,4.73c-2.609,0-4.719-2.106-4.719-4.73
							c0-2.603,2.109-4.728,4.719-4.728C77.811,137.112,79.932,139.237,79.932,141.84z"/>
						<path style="fill:#FFFFFF;" d="M75.18,140.694c0,0.769-0.609,1.418-1.406,1.418c-0.773,0-1.404-0.649-1.404-1.418
							c0-0.783,0.631-1.405,1.404-1.405C74.57,139.289,75.18,139.911,75.18,140.694z"/>
					</g>
					<g>
						<path style="fill:#75CDD6;" d="M108.447,61.359c0,2.633-2.107,4.758-4.74,4.758c-2.609,0-4.729-2.125-4.729-4.758
							c0-2.594,2.119-4.715,4.729-4.715C106.34,56.645,108.447,58.766,108.447,61.359z"/>
						<path style="fill:#FFFFFF;" d="M103.707,60.227c0,0.756-0.607,1.414-1.404,1.414c-0.773,0-1.404-0.658-1.404-1.414
							c0-0.8,0.631-1.418,1.404-1.418C103.1,58.809,103.707,59.427,103.707,60.227z"/>
					</g>
					<g>
						<path style="fill:#8F89C2;" d="M95.658,100.506c0,2.621-2.109,4.759-4.748,4.759c-2.602,0-4.725-2.138-4.725-4.759
							c0-2.577,2.123-4.715,4.725-4.715C93.549,95.791,95.658,97.929,95.658,100.506z"/>
						<path style="fill:#FFFFFF;" d="M90.91,99.386c0,0.759-0.602,1.39-1.389,1.39c-0.785,0-1.414-0.631-1.414-1.39
							c0-0.799,0.629-1.421,1.414-1.421C90.309,97.965,90.91,98.587,90.91,99.386z"/>
					</g>
					<g>
						<path style="fill:#F05B74;" d="M140.947,120.215c0,2.608-2.117,4.73-4.727,4.73c-2.611,0-4.74-2.122-4.74-4.73
							c0-2.605,2.129-4.74,4.74-4.74C138.83,115.475,140.947,117.609,140.947,120.215z"/>
						<path style="fill:#FFFFFF;" d="M136.221,119.066c0,0.784-0.633,1.405-1.42,1.405c-0.754,0-1.404-0.621-1.404-1.405
							c0-0.769,0.65-1.421,1.404-1.421C135.588,117.646,136.221,118.298,136.221,119.066z"/>
					</g>
					<g>
						<path style="fill:#8AC655;" d="M196.092,117.04c0,2.593-2.123,4.699-4.732,4.699c-2.619,0-4.727-2.107-4.727-4.699
							c0-2.634,2.107-4.768,4.727-4.768C193.969,112.272,196.092,114.406,196.092,117.04z"/>
						<path style="fill:#FFFFFF;" d="M191.359,115.876c0,0.774-0.633,1.391-1.42,1.391c-0.768,0-1.404-0.616-1.404-1.391
							c0-0.78,0.637-1.405,1.404-1.405C190.727,114.471,191.359,115.096,191.359,115.876z"/>
					</g>
					<g>
						<path style="fill:#70CEEC;" d="M168.449,163.859c0,2.624-2.107,4.715-4.74,4.715c-2.594,0-4.717-2.091-4.717-4.715
							c0-2.633,2.123-4.755,4.717-4.755C166.342,159.105,168.449,161.227,168.449,163.859z"/>
						<path style="fill:#FFFFFF;" d="M163.709,162.699c0,0.78-0.621,1.405-1.404,1.405c-0.768,0-1.418-0.625-1.418-1.405
							c0-0.769,0.65-1.394,1.418-1.394C163.088,161.306,163.709,161.931,163.709,162.699z"/>
					</g>
					<g>
						<path style="fill:#A188C0;" d="M114.717,177.668c0,2.617-2.123,4.742-4.734,4.742c-2.586,0-4.738-2.125-4.738-4.742
							c0-2.624,2.152-4.73,4.738-4.73C112.594,172.938,114.717,175.044,114.717,177.668z"/>
						<path style="fill:#FFFFFF;" d="M109.982,176.517c0,0.784-0.631,1.418-1.412,1.418c-0.76,0-1.406-0.634-1.406-1.418
							c0-0.796,0.646-1.408,1.406-1.408C109.352,175.108,109.982,175.721,109.982,176.517z"/>
					</g>
					<g>
						<path style="fill:#9CDAED;" d="M41.809,159.258c0,2.603-2.131,4.725-4.754,4.725c-2.592,0-4.725-2.122-4.725-4.725
							c0-2.627,2.133-4.749,4.725-4.749C39.678,154.509,41.809,156.631,41.809,159.258z"/>
						<path style="fill:#FFFFFF;" d="M37.055,158.107c0,0.753-0.619,1.415-1.404,1.415c-0.768,0-1.404-0.662-1.404-1.415
							c0-0.799,0.637-1.417,1.404-1.417C36.436,156.689,37.055,157.308,37.055,158.107z"/>
					</g>
					<g>
						<path style="fill:#EF539B;" d="M240.029,161.604c0,2.623-2.105,4.729-4.709,4.729c-2.625,0-4.746-2.106-4.746-4.729
							c0-2.605,2.121-4.727,4.746-4.727C237.924,156.876,240.029,158.998,240.029,161.604z"/>
						<path style="fill:#FFFFFF;" d="M235.32,160.471c0,0.756-0.637,1.39-1.438,1.39c-0.768,0-1.389-0.634-1.389-1.39
							c0-0.8,0.621-1.421,1.389-1.421C234.684,159.05,235.32,159.671,235.32,160.471z"/>
					</g>
					<g>
						<path style="fill:#F175AD;" d="M243.111,117.475c0,2.621-2.121,4.739-4.744,4.739c-2.604,0-4.74-2.118-4.74-4.739
							c0-2.624,2.137-4.73,4.74-4.73C240.99,112.744,243.111,114.851,243.111,117.475z"/>
						<path style="fill:#FFFFFF;" d="M238.367,116.314c0,0.78-0.619,1.417-1.404,1.417c-0.768,0-1.393-0.637-1.393-1.417
							c0-0.76,0.625-1.394,1.393-1.394C237.748,114.921,238.367,115.555,238.367,116.314z"/>
					</g>
					<g>
						<path style="fill:#F05438;" d="M155.738,49.287c0,2.602-2.117,4.739-4.756,4.739c-2.604,0-4.711-2.138-4.711-4.739
							c0-2.609,2.107-4.733,4.711-4.733C153.621,44.554,155.738,46.678,155.738,49.287z"/>
						<path style="fill:#FFFFFF;" d="M150.982,48.139c0,0.753-0.619,1.399-1.406,1.399c-0.766,0-1.391-0.646-1.391-1.399
							c0-0.771,0.625-1.421,1.391-1.421C150.363,46.718,150.982,47.367,150.982,48.139z"/>
					</g>
					<g>
						<path style="fill:#52A9DE;" d="M48.512,105.316c0,2.621-2.123,4.739-4.73,4.739c-2.617,0-4.725-2.118-4.725-4.739
							s2.107-4.712,4.725-4.712C46.389,100.604,48.512,102.695,48.512,105.316z"/>
						<path style="fill:#FFFFFF;" d="M43.781,104.181c0,0.753-0.633,1.39-1.406,1.39c-0.779,0-1.416-0.637-1.416-1.39
							c0-0.796,0.637-1.418,1.416-1.418C43.148,102.763,43.781,103.385,43.781,104.181z"/>
					</g>
					<g>
						<path style="fill:#E03D59;" d="M201.518,83.961c0,2.603-2.133,4.728-4.725,4.728c-2.596,0-4.717-2.125-4.717-4.728
							c0-2.608,2.121-4.73,4.717-4.73C199.385,79.23,201.518,81.353,201.518,83.961z"/>
						<path style="fill:#FFFFFF;" d="M196.793,82.801c0,0.78-0.623,1.411-1.404,1.411c-0.773,0-1.42-0.631-1.42-1.411
							c0-0.775,0.646-1.421,1.42-1.421C196.17,81.38,196.793,82.025,196.793,82.801z"/>
					</g>
				</g>
			</g>
			<g>
				<path style="opacity:0.9;fill:#FBC5B9;" d="M152.336,88.471c0,0-8.457-4.201-11.793-17.966
					c-3.326-13.763-18.455,37.053,14.277,51.602c32.746,14.562,61.543-4.029,48.441-18.615
					C190.146,88.915,152.336,88.471,152.336,88.471z"/>
				<g>
					<g>
						<g>
							<path style="fill:#E30613;" d="M212.152,95.09c-6.783,17.976-26.867,27.054-44.863,20.263
								c-17.969-6.784-27.047-26.854-20.264-44.848c6.795-17.964,26.867-27.042,44.848-20.263
								C209.85,57.023,218.928,77.111,212.152,95.09z"/>
							<path style="fill:#9B260C;" d="M166.75,116.811c-18.764-7.079-28.258-28.098-21.182-46.86
								c7.076-18.734,28.094-28.244,46.857-21.166c18.75,7.076,28.26,28.095,21.182,46.857
								C206.529,114.392,185.5,123.901,166.75,116.811z M191.322,51.702c-17.145-6.469-36.365,2.217-42.834,19.359
								c-6.475,17.152,2.215,36.358,19.354,42.827c17.154,6.488,36.365-2.207,42.834-19.353
								C217.164,77.394,208.475,58.188,191.322,51.702z"/>
						</g>
						<path style="fill:#CA0613;" d="M208.639,63.735c-0.459,0.502-1.002,0.934-1.707,1.151c-5.441,1.687-7.682-1.525-12.316-4.091
							c-11.172-6.219-26.92-4.642-30.998,9.574c-2.611,9.065-1.031,18.101,3.4,26.313c0.529,0.945-0.217,2.517-1.365,2.568
							c-18.842,0.784-20.83-22.451-12.545-38.957c-2.539,2.957-4.633,6.371-6.082,10.211c-6.783,17.993,2.295,38.063,20.264,44.848
							c17.996,6.791,38.08-2.287,44.863-20.263C216.23,84.282,214.539,72.718,208.639,63.735z"/>
						<path style="fill:#CA0613;" d="M191.561,68.046c-0.754-1.001-2.941,0.456-3.373,1.203c-0.273,0.483-0.652,1.16-1.066,1.553
							c-0.205,0.024-0.379,0.04-0.566-0.028c-1.842-0.648-3.205-1.567-4.445-3.064c-1.025-1.228-1.5-2.525-1.012-4.041
							c0.4-1.268,0.443-1.822,1.74-2.309c0.348-0.135,2.945-1.972,1.656-2.443c-1.102-0.416-2.441,0.119-3.545,0.432
							c-2.164,0.609-4.648,2.177-6.205,3.809c-1.592,1.69-2.945,3.475-3.887,5.604c-0.854,1.975,0.225,4.065,1.4,5.636
							c2.975,3.959,8.137,5.509,12.725,3.441C188.225,76.367,194.9,72.424,191.561,68.046z"/>
						<path style="fill:#540613;" d="M217.838,49.865c-14.742-1.54-31.539,6.993-38.514,20.073c-0.914,1.727,2.117,4.323,2.998,3.04
							c8.041-11.821,21.508-20.438,35.773-21.355C219.607,51.521,219.051,49.988,217.838,49.865z"/>
						<path style="fill:#FFFFFF;" d="M176.148,51.81c-4.143-1.054-9.643,1.39-12.869,3.849c-3.299,2.514-10.713,8.971-9.178,13.631
							c0.379,1.176,2.975-0.566,3.355-0.943c2.494-2.557,3.781-5.783,6.117-8.512c2.553-3.013,7.594-6.239,11.537-6.77
							C175.461,53.025,177.053,52.039,176.148,51.81z"/>
						<path style="fill:#FFFFFF;" d="M157.09,75.908c0.039-1.203-0.541-2.201-1.941-2.213c-2.1-0.031-4.664,5.333-2.1,6.065
							C155.336,80.422,157.049,77.911,157.09,75.908z"/>
					</g>
				</g>
			</g>
		</g>
	</g>
</g>
</svg>
